<svg xmlns="http://www.w3.org/2000/svg" aria-hidden="true" style="position:absolute;width:0;height:0;overflow:hidden">
  <defs>
    <symbol id="icon-cup" viewBox="0 0 32 32">
      <path d="M16.666 25.333v-5.005c1.226-.091 2.292-.535 3.199-1.332s1.475-1.801 1.704-3.011c1.411-.166 2.613-.744 3.607-1.735s1.491-2.185 1.491-3.584v-.513c0-.592-.211-1.099-.633-1.52s-.929-.632-1.52-.633h-2.719v-.513c0-.592-.211-1.099-.632-1.52s-.93-.633-1.523-.633h-7.283c-.592 0-1.099.211-1.52.633s-.633.928-.633 1.52V8H7.485c-.592 0-1.099.211-1.52.633s-.632.929-.632 1.52v.513c0 1.398.497 2.593 1.491 3.584s2.196 1.569 3.607 1.733c.229 1.211.797 2.215 1.704 3.012s1.973 1.242 3.199 1.333v5.004h-3.488c-.188 0-.347.064-.475.192s-.192.287-.192.476.064.348.192.475.286.191.475.191h8.308c.189 0 .348-.064.476-.192s.192-.287.191-.476a.65.65 0 0 0-.667-.666h-3.487zm5.128-10.779V9.333h2.719c.239 0 .436.077.589.231s.231.351.231.591v.512c0 .998-.339 1.866-1.016 2.604s-1.517 1.166-2.523 1.284zm-5.8 4.471c-1.227 0-2.268-.429-3.123-1.287s-1.283-1.898-1.283-3.124V7.487c0-.24.077-.437.232-.591a.794.794 0 0 1 .589-.231h7.179c.24 0 .436.077.589.231a.797.797 0 0 1 .232.591v7.128c0 1.225-.429 2.266-1.288 3.124s-1.903 1.285-3.129 1.285zm-5.789-4.471c-1.005-.118-1.847-.546-2.524-1.284s-1.015-1.606-1.015-2.604v-.513c0-.239.077-.436.231-.589s.35-.231.589-.231h2.719v5.221z"/>
    </symbol>
    <symbol id="icon-game7" viewBox="0 0 32 32">
      <path stroke-linecap="round" stroke-width="1.143" d="M10 12v4m-2-2h4m1.553-7.627.669.472a3.083 3.083 0 0 0 3.554 0l.669-.473a5.656 5.656 0 0 1 3.267-1.039h.816c.54 0 1.084.033 1.592.213 3.177 1.128 5.361 5.247 5.204 14.59-.032 1.883-.472 3.963-2.171 4.775a4.248 4.248 0 0 1-1.857.421 3.649 3.649 0 0 1-2.04-.583c-1.22-.799-2.112-2.133-3.405-2.803a5.473 5.473 0 0 0-2.52-.615h-2.665c-.877 0-1.741.211-2.52.613-1.293.672-2.187 2.005-3.404 2.804a3.649 3.649 0 0 1-2.04.583 4.276 4.276 0 0 1-1.857-.421c-1.699-.812-2.139-2.893-2.171-4.775-.159-9.344 2.027-13.463 5.204-14.59.508-.18 1.055-.213 1.592-.213h.816c1.171 0 2.312.363 3.267 1.04z"/>
      <path d="M25.333 13.667a.997.997 0 0 1-1 1 .997.997 0 0 1-1-1 .997.997 0 0 1 1-1 .997.997 0 0 1 1 1zm-4 0a.997.997 0 0 1-1 1 .997.997 0 0 1-1-1 .997.997 0 0 1 1-1 .997.997 0 0 1 1 1zm1-3a.997.997 0 0 1 1 1 .997.997 0 0 1-1 1 .997.997 0 0 1-1-1 .997.997 0 0 1 1-1zm0 4a1.01 1.01 0 0 1 .707.293 1.002 1.002 0 0 1-.707 1.707.997.997 0 0 1-1-1 .997.997 0 0 1 1-1z"/>
    </symbol>
    <symbol id="icon-game" viewBox="0 0 32 32">
    <path stroke-linejoin="round" stroke-linecap="round" stroke-miterlimit="4" stroke-width="1.5" d="M16 8.5v-3c0-0.828 0.672-1.5 1.5-1.5v0c0.828 0 1.5-0.672 1.5-1.5v0-1.5M13 22l-2.25-2.25M10.75 19.75l-2.25-2.25M10.75 19.75l-2.25 2.25M10.75 19.75l2.25-2.25M23.5 21.25v-3M1 19.75c0-4.93 0-7.396 1.362-9.057 0.25-0.303 0.527-0.582 0.831-0.831 1.662-1.362 4.125-1.362 9.057-1.362h7.5c4.932 0 7.396 0 9.057 1.362 0.303 0.25 0.582 0.527 0.831 0.831 1.362 1.662 1.362 4.125 1.362 9.057s0 7.396-1.362 9.057c-0.25 0.303-0.528 0.582-0.831 0.831-1.662 1.362-4.125 1.362-9.057 1.362h-7.5c-4.93 0-7.396 0-9.057-1.362-0.306-0.253-0.578-0.525-0.823-0.821l-0.008-0.010c-1.362-1.662-1.362-4.125-1.362-9.057z"></path>
    </symbol>
    <symbol id="icon-voc" viewBox="0 0 32 32">
      <path d="M10.154 28c-.964 0-1.787-.34-2.467-1.021a3.353 3.353 0 0 1-1.021-2.465V8c0-1.118.387-2.064 1.161-2.839S9.547 4 10.666 4H23.18c.596 0 1.104.21 1.524.629s.629.928.629 1.525v15.52c0 .185-.055.349-.164.492s-.243.242-.4.295a2.104 2.104 0 0 0-1.144.747 2.049 2.049 0 0 0-.447 1.305c0 .475.144.906.433 1.293s.666.64 1.132.757c.169.06.309.146.421.257s.168.253.168.427v.077a.66.66 0 0 1-.667.675H10.153zM8 21.817c.293-.258.624-.454.992-.589s.756-.203 1.163-.203h13.846V6.153c0-.239-.077-.436-.231-.589s-.35-.231-.589-.231H10.667c-.726 0-1.352.263-1.879.788S8 7.273 8 8v13.818zm5.946-6.902h4.073l.667 1.791a.478.478 0 0 0 .47.32c.181 0 .32-.072.416-.217s.114-.298.053-.457l-2.881-7.671c-.044-.121-.116-.213-.216-.276s-.212-.095-.339-.095h-.42c-.127 0-.24.032-.339.095s-.17.155-.215.276l-2.883 7.653c-.06.176-.04.336.057.479s.238.214.42.213c.109 0 .204-.027.283-.081s.142-.135.187-.24l.667-1.789zm.364-1.007 1.673-4.483h.024l1.648 4.483H14.31zm-4.156 12.758h12.484a3.312 3.312 0 0 1-.587-.976 3.233 3.233 0 0 1-.207-1.179c0-.406.068-.793.203-1.16s.332-.698.591-.993H10.154c-.612 0-1.124.212-1.536.635s-.618.93-.619 1.52c0 .612.206 1.123.619 1.535s.924.618 1.536.619z"/>
    </symbol>
    <symbol id="icon-set" viewBox="0 0 32 32">
      <path d="m27.517 18.848-.067-.663-.02.001-.023.004.109.657zm0 0 .067.664.023-.003.021-.004-.111-.657zm-5.387 7.309.423-.516-.007-.004-.416.52zm0 0-.423.516.007.005.416-.521zm-12.261 0-.423-.515-.009.008-.011.009.443.497zm0 0 .423.517.011-.009.009-.008-.443-.5zM4.481 13.152v-.667h-.032l-.033.003.065.664zm0 0v.667h.033l.033-.004-.067-.663zm15.028-8.738c-.02-.242-.048-.483-.084-.723a2.018 2.018 0 0 0-.189-.611l-1.185.612c.013.027.036.08.059.219.025.147.044.337.075.635l1.325-.132zm.261 1.604c-.016-.02-.064-.101-.116-.387a17.78 17.78 0 0 1-.143-1.217l-1.328.132c.053.535.097.977.159 1.321.06.336.153.679.368.96l1.06-.809zm.619.256a.664.664 0 0 1-.619-.256l-1.061.808a1.998 1.998 0 0 0 1.857.769l-.177-1.321zm1.317-.951c-.433.356-.729.597-.963.759-.239.165-.331.188-.355.192l.177 1.321c.349-.047.657-.223.939-.419.287-.2.629-.48 1.047-.821l-.845-1.032zm1.136-.748a2.05 2.05 0 0 0-.564.297c-.165.117-.353.272-.572.451l.845 1.032c.231-.189.38-.311.5-.396a.826.826 0 0 1 .197-.115l-.407-1.269zm1.404.07a1.999 1.999 0 0 0-1.404-.069l.407 1.269a.666.666 0 0 1 .467.024l.531-1.224zm1.056.858c-.2-.2-.372-.373-.524-.507a1.993 1.993 0 0 0-.532-.352l-.531 1.224c.028.012.079.04.185.133.111.096.247.232.459.444l.943-.943zm1.191 1.191-1.191-1.191-.943.943 1.191 1.191.943-.943zm.858 1.056a2.02 2.02 0 0 0-.353-.532c-.133-.152-.307-.324-.505-.524l-.943.943c.212.212.347.348.445.459.093.107.12.157.132.185l1.224-.531zm.07 1.404c.148-.461.123-.96-.069-1.404l-1.224.531a.665.665 0 0 1 .023.467l1.271.407zm-.748 1.136c.179-.219.333-.407.451-.572.12-.171.229-.351.297-.564l-1.271-.407a.787.787 0 0 1-.113.197c-.127.171-.259.337-.396.5l1.032.845zm-.951 1.317c.004-.024.027-.116.192-.355.161-.233.403-.529.759-.963l-1.032-.845c-.341.417-.623.76-.821 1.047-.196.28-.372.589-.419.939l1.321.177zm.256.619c-.093-.071-.166-.166-.211-.275s-.06-.227-.045-.344l-1.321-.177a2.001 2.001 0 0 0 .77 1.856l.808-1.06zm1.604.26c-.559-.056-.937-.093-1.217-.144-.285-.052-.367-.1-.387-.116l-.808 1.06c.28.213.623.307.96.368.343.061.784.107 1.32.16l.132-1.328zm1.333.275a2.009 2.009 0 0 0-.611-.189c-.2-.033-.443-.057-.723-.085l-.133 1.327c.299.031.489.049.636.075a.799.799 0 0 1 .219.059l.612-1.185zm.943 1.041a1.995 1.995 0 0 0-.943-1.041l-.612 1.185a.672.672 0 0 1 .315.347l1.24-.491zm.14 1.353c0-.281 0-.525-.013-.728a1.994 1.994 0 0 0-.127-.625l-1.24.491a.758.758 0 0 1 .036.224c.01.213.014.427.011.64l1.333-.001zm0 1.686v-1.685h-1.333v1.685h1.333zm-.14 1.352c.083-.208.113-.416.127-.625.013-.201.013-.445.013-.727h-1.333c0 .299 0 .491-.011.639a.777.777 0 0 1-.036.224l1.24.489zm-.943 1.042c.43-.222.765-.593.943-1.043l-1.24-.489a.663.663 0 0 1-.315.347l.612 1.185zm-1.333.275c.28-.028.524-.053.723-.087.207-.033.411-.085.609-.187l-.611-1.187a.79.79 0 0 1-.219.059c-.147.025-.337.044-.635.075l.132 1.327zm-1.603.26c.02-.016.101-.065.387-.116.28-.051.659-.089 1.216-.144l-.132-1.327c-.535.053-.977.096-1.321.159-.336.06-.677.153-.959.367l.809 1.061zm-.257.619a.664.664 0 0 1 .257-.619l-.809-1.061a1.998 1.998 0 0 0-.769 1.857l1.321-.177zm.951 1.317a17.639 17.639 0 0 1-.759-.963c-.165-.237-.188-.331-.192-.355l-1.32.179c.047.349.223.656.417.937.2.285.48.629.821 1.045l1.032-.844zm.748 1.136a2.01 2.01 0 0 0-.297-.565 11.772 11.772 0 0 0-.451-.571l-1.032.844c.189.232.311.38.396.501a.8.8 0 0 1 .113.196l1.271-.405zm-.07 1.404c.192-.444.217-.943.069-1.404l-1.271.405a.668.668 0 0 1-.023.468l1.224.531zm-.857 1.055c.199-.199.371-.371.504-.523.139-.159.264-.325.353-.532l-1.224-.531a.799.799 0 0 1-.133.184c-.143.157-.291.31-.444.459l.944.943zm-1.192 1.192 1.192-1.192-.944-.943-1.191 1.192.943.943zm-1.056.857c.205-.089.373-.213.532-.352.152-.133.324-.307.524-.507l-.943-.941c-.212.212-.348.347-.459.444a.784.784 0 0 1-.185.133l.531 1.223zm-1.404.071c.461.147.96.122 1.404-.071l-.531-1.223a.665.665 0 0 1-.467.023l-.407 1.271zm-1.136-.75c.219.179.407.333.572.451.171.121.351.231.564.299l.407-1.271a.787.787 0 0 1-.197-.113c-.171-.127-.337-.26-.5-.397l-.845 1.032zm-1.317-.949c.024.003.117.027.355.192.233.161.529.403.963.757l.845-1.032c-.417-.34-.76-.621-1.047-.821-.28-.195-.589-.371-.939-.417l-.177 1.321zm-.619.256c.071-.093.166-.166.275-.211s.227-.06.344-.045l.177-1.321a1.997 1.997 0 0 0-1.856.768l1.06.809zm-.26 1.604c.056-.559.093-.937.144-1.217.052-.285.1-.367.116-.387l-1.06-.809c-.213.28-.307.624-.368.96-.061.343-.107.784-.16 1.32l1.328.133zm-.275 1.333c.103-.2.153-.404.188-.611.035-.2.059-.443.087-.723l-1.328-.133c-.019.213-.042.425-.073.636a.799.799 0 0 1-.059.219l1.185.612zm-1.041.943c.45-.178.82-.513 1.041-.943l-1.185-.612a.672.672 0 0 1-.347.315l.491 1.24zm-1.353.14c.281 0 .525 0 .728-.013.208-.013.417-.044.625-.127l-.491-1.24a.777.777 0 0 1-.224.036c-.147.011-.34.011-.64.011l.001 1.333zm-1.686 0h1.685l-.001-1.333h-1.684v1.333zm-1.353-.14c.209.083.417.113.627.127.201.013.445.013.727.013v-1.333c-.299 0-.491 0-.639-.011a.813.813 0 0 1-.224-.036l-.491 1.24zm-1.041-.943c.222.43.592.765 1.041.943l.491-1.24a.663.663 0 0 1-.347-.315l-1.185.612zm-.275-1.333c.027.282.055.523.085.723.035.207.087.411.189.611l1.185-.612a.79.79 0 0 1-.059-.219 11.217 11.217 0 0 1-.075-.635l-1.327.132zm-.26-1.604c.016.02.064.101.116.387.051.28.088.66.144 1.217l1.327-.132a18.376 18.376 0 0 0-.159-1.321c-.06-.336-.153-.679-.368-.96l-1.06.809zm-.619-.256a.664.664 0 0 1 .619.256l1.06-.809c-.214-.281-.498-.498-.824-.633s-.682-.182-1.032-.135l.177 1.321zm-1.317.951c.433-.356.729-.597.963-.759.239-.165.331-.189.355-.192l-.177-1.321c-.349.047-.657.223-.939.419-.287.199-.629.48-1.047.821l.845 1.032zm-1.136.748a2.05 2.05 0 0 0 .564-.297c.165-.117.353-.272.572-.451l-.845-1.032c-.163.137-.329.269-.5.396a.805.805 0 0 1-.197.113l.407 1.271zm-1.404-.068c.444.192.943.215 1.404.068l-.407-1.271a.665.665 0 0 1-.467-.023l-.531 1.225zm-1.056-.86c.2.2.372.373.524.507.157.137.327.264.532.353l.531-1.225a.784.784 0 0 1-.185-.133c-.157-.143-.31-.291-.459-.444l-.943.943zm-1.191-1.191 1.191 1.191.943-.943-1.191-1.191-.943.943zm-.858-1.056c.089.205.215.373.353.532.133.152.307.324.505.524l.943-.943a10.152 10.152 0 0 1-.445-.459.784.784 0 0 1-.133-.185l-1.223.531zm-.07-1.404c-.148.461-.123.96.069 1.404l1.223-.531a.67.67 0 0 1-.023-.467l-1.269-.407zm.748-1.136c-.179.219-.333.407-.451.572a1.98 1.98 0 0 0-.297.564l1.269.407a.794.794 0 0 1 .115-.197c.085-.12.207-.269.396-.5l-1.032-.845zm.951-1.317c-.004.024-.027.116-.192.355-.163.233-.403.529-.759.963l1.032.845c.341-.417.623-.76.821-1.047.196-.28.372-.589.419-.939l-1.321-.177zm-.256-.619a.666.666 0 0 1 .256.619l1.321.177a2.001 2.001 0 0 0-.77-1.856l-.808 1.06zm-1.604-.259c.559.055.937.092 1.217.143.285.052.367.1.387.116l.808-1.061c-.28-.213-.623-.307-.96-.367a18.697 18.697 0 0 0-1.32-.16l-.132 1.329zm-1.333-.276c.2.103.404.153.611.188.2.035.441.06.723.088l.133-1.328a9.672 9.672 0 0 1-.636-.075.799.799 0 0 1-.219-.059l-.612 1.185zm-.943-1.042c.178.45.513.821.943 1.043l.612-1.185a.672.672 0 0 1-.315-.347l-1.24.489zM2 16.843c0 .281 0 .525.013.728.009.213.051.424.127.624l1.24-.489a.777.777 0 0 1-.036-.224 10.51 10.51 0 0 1-.011-.64L2 16.843zm0-1.685v1.685h1.333v-1.685H2zm.139-1.353a2.006 2.006 0 0 0-.127.627c-.013.201-.013.445-.013.727h1.333c0-.299 0-.491.011-.639a.777.777 0 0 1 .036-.224l-1.24-.491zm.943-1.042c-.43.222-.765.592-.943 1.041l1.24.491a.668.668 0 0 1 .315-.347l-.612-1.185zm1.333-.276c-.282.027-.523.056-.723.087-.212.03-.419.094-.611.189l.612 1.185a.767.767 0 0 1 .219-.059c.147-.025.337-.044.635-.075l-.132-1.328zm1.604-.258c-.02.016-.101.064-.387.116-.28.051-.659.087-1.217.143l.132 1.328c.535-.053.979-.097 1.321-.159.337-.06.68-.153.96-.368l-.809-1.06zm.256-.619a.664.664 0 0 1-.256.619l.809 1.06a2.004 2.004 0 0 0 .768-1.858l-1.321.179zm-.95-1.319c.356.435.597.731.76.964.165.239.187.331.191.355l1.321-.179c-.047-.349-.223-.656-.419-.937-.199-.287-.48-.629-.821-1.047l-1.032.844zm-.748-1.136c.067.213.176.395.297.565.117.164.272.353.451.571l1.032-.844c-.137-.163-.269-.33-.396-.501a.84.84 0 0 1-.115-.196l-1.269.405zm.069-1.402a1.996 1.996 0 0 0-.069 1.403l1.269-.405a.666.666 0 0 1 .024-.467l-1.224-.531zm.859-1.056c-.2.199-.373.371-.507.524a1.993 1.993 0 0 0-.352.532l1.224.531a.784.784 0 0 1 .133-.185c.143-.158.291-.311.444-.459l-.943-.943zm1.19-1.192L5.504 6.697l.943.943 1.191-1.192-.943-.943zm1.056-.858a1.993 1.993 0 0 0-.532.352c-.152.133-.325.305-.524.505l.943.943c.212-.211.348-.347.459-.444a.8.8 0 0 1 .185-.133l-.531-1.223zm1.404-.07a1.999 1.999 0 0 0-1.404.071l.531 1.223a.67.67 0 0 1 .467-.023l.407-1.271zm1.136.749c-.219-.179-.407-.333-.572-.451a2.01 2.01 0 0 0-.564-.299l-.407 1.271a.787.787 0 0 1 .197.113c.12.087.269.208.501.397l.844-1.032zm1.318.951c-.024-.004-.116-.027-.355-.192-.33-.242-.651-.494-.963-.759l-.844 1.032c.416.341.76.623 1.045.821.28.195.589.371.939.419l.177-1.321zm.618-.258a.66.66 0 0 1-.619.257l-.177 1.321a2.001 2.001 0 0 0 1.857-.769l-1.061-.809zm.26-1.602c-.056.557-.093.937-.144 1.216-.052.285-.1.367-.116.387l1.061.809c.213-.28.307-.623.367-.96.061-.343.107-.784.16-1.32l-1.328-.132zm.275-1.334c-.103.2-.155.404-.189.611-.033.2-.057.441-.085.723l1.327.133c.018-.213.043-.425.075-.636a.799.799 0 0 1 .059-.219l-1.185-.612zm1.043-.942c-.45.178-.821.512-1.043.943l1.185.612a.672.672 0 0 1 .347-.315l-.489-1.24zm1.352-.14c-.281 0-.525 0-.728.013a1.993 1.993 0 0 0-.624.127l.489 1.24a.777.777 0 0 1 .224-.036c.147-.011.34-.011.64-.011l-.001-1.333zm1.685 0h-1.685v1.333h1.685V2.001zm1.353.14a2.006 2.006 0 0 0-.627-.127c-.201-.013-.445-.013-.727-.013v1.333c.299 0 .491 0 .639.011a.777.777 0 0 1 .224.036l.491-1.24zm1.042.942a2.003 2.003 0 0 0-1.043-.943l-.489 1.24c.15.06.273.171.347.315l1.185-.612zm1.429 12.916a4.667 4.667 0 0 1-4.667 4.667v1.333a5.996 5.996 0 0 0 6-6h-1.333zm-4.667-4.666A4.667 4.667 0 0 1 20.666 16h1.333a5.996 5.996 0 0 0-6-6v1.333zm-4.666 4.666A4.667 4.667 0 0 1 16 11.332V9.999a5.996 5.996 0 0 0-6 6h1.333zm4.666 4.667a4.667 4.667 0 0 1-4.667-4.667H9.999a5.996 5.996 0 0 0 6 6v-1.333z"/>
    </symbol>
    <symbol id="icon-share" viewBox="0 0 32 32">
      <path stroke-linecap="round" stroke-linejoin="round" stroke-width="1.143" d="m19.333 8.667-6.667 4.667m6.667 9.999-6.667-4.667M12.667 16A3.333 3.333 0 1 1 6 16a3.333 3.333 0 0 1 6.667 0zM26 24.667a3.333 3.333 0 1 1-6.667 0 3.333 3.333 0 0 1 6.667 0zm0-17.334a3.333 3.333 0 1 1-6.667 0 3.333 3.333 0 0 1 6.667 0z"/>
    </symbol>
    <symbol id="icon-password" viewBox="0 0 28 32">
    <path d="M9 9v3h10v-3c0-2.761-2.239-5-5-5s-5 2.239-5 5v0zM5 12v-3c0.106-4.889 4.095-8.812 9-8.812s8.894 3.923 9 8.802l0 0.010v3h1c2.206 0 4 1.794 4 4v12c0 2.206-1.794 4-4 4h-20c-2.206 0-4-1.794-4-4v-12c0-2.206 1.794-4 4-4h1z"></path>
    </symbol>
    <symbol id="icon-email" viewBox="0 0 32 32">
    <path fill="none" stroke="#e5e7eb" style="stroke: var(--color2, #e5e7eb)" stroke-linejoin="miter" stroke-linecap="butt" stroke-miterlimit="4" stroke-width="2" d="M32 32h-32v-32h32v32z"></path>
    <path fill="#bcbebf" style="fill: var(--color1, #bcbebf)" d="M4 7c-0.55 0-1 0.45-1 1v1.38l10.78 8.852c0.599 0.497 1.376 0.798 2.223 0.798s1.624-0.301 2.229-0.802l-0.006 0.005 10.774-8.852v-1.38c0-0.55-0.45-1-1-1h-24zM3 13.262v10.738c0 0.55 0.45 1 1 1h24c0.55 0 1-0.45 1-1v-10.738l-8.876 7.288c-1.113 0.919-2.553 1.476-4.124 1.476s-3.011-0.557-4.135-1.485l0.011 0.009-8.876-7.288zM0 8c0-2.206 1.794-4 4-4h24c2.206 0 4 1.794 4 4v16c0 2.206-1.794 4-4 4h-24c-2.206 0-4-1.794-4-4v-16z"></path>
    </symbol>
    <symbol id="icon-user" viewBox="0 0 28 32">
    <path d="M19 8c0-2.761-2.239-5-5-5s-5 2.239-5 5v0c0 2.761 2.239 5 5 5s5-2.239 5-5v0zM6 8c0-4.418 3.582-8 8-8s8 3.582 8 8v0c0 4.418-3.582 8-8 8s-8-3.582-8-8v0zM3.080 29h21.84c-0.581-3.979-3.97-7-8.065-7-0 0-0.001 0-0.001 0h-5.71c-4.093 0.002-7.481 3.022-8.057 6.956l-0.005 0.044zM0 30.144c0-0.001 0-0.003 0-0.004 0-6.152 4.988-11.14 11.14-11.14 0.001 0 0.003 0 0.004 0h5.712c0.001 0 0.003 0 0.004 0 6.152 0 11.14 4.988 11.14 11.14 0 0.001 0 0.003 0 0.004v-0c0 1.025-0.831 1.856-1.856 1.856v0h-24.288c-1.025 0-1.856-0.831-1.856-1.856v0z"></path>
    </symbol>
    <symbol id="icon-google" viewBox="0 0 30 32">
    <path d="M29.762 16.346c0 8.422-5.768 14.415-14.286 14.415-0.005 0-0.010 0-0.015 0-8.143 0-14.744-6.601-14.744-14.744 0-0.006 0-0.012 0-0.018v0.001c0-0.005 0-0.012 0-0.018 0-8.143 6.601-14.744 14.744-14.744 0.005 0 0.011 0 0.016 0h-0.001c3.977 0 7.322 1.46 9.899 3.864l-4.017 3.863c-5.257-5.071-15.031-1.262-15.031 7.035 0 5.149 4.114 9.321 9.149 9.321 5.845 0 8.037-4.19 8.381-6.363h-8.381v-5.076h14.054c0.137 0.756 0.232 1.483 0.232 2.466z"></path>
    </symbol>
    <symbol id="icon-facebook" viewBox="0 0 30 32">
    <path d="M30.001 16c0-0.001 0-0.002 0-0.003 0-8.152-6.608-14.76-14.76-14.76-0.001 0-0.002 0-0.003 0h0c-0.001 0-0.002 0-0.003 0-8.152 0-14.76 6.608-14.76 14.76 0 0.001 0 0.002 0 0.003v-0c0 7.368 5.399 13.475 12.456 14.583v-10.316h-3.749v-4.267h3.749v-3.252c0-3.7 2.203-5.745 5.577-5.745 1.615 0 3.304 0.29 3.304 0.29v3.631h-1.862c-1.833 0-2.405 1.138-2.405 2.306v2.77h4.093l-0.655 4.267h-3.438v10.316c7.055-1.108 12.456-7.215 12.456-14.583z"></path>
    </symbol>
    <symbol id="icon-accordion-arrow" viewBox="0 0 58 32">
    <path d="M51.926 0.864l4.522 4.525-24.65 24.656c-0.77 0.775-1.836 1.254-3.014 1.254s-2.244-0.48-3.014-1.254l-24.659-24.656 4.522-4.522 23.146 23.142 23.149-23.149z"></path>
    </symbol>
    <symbol id="icon-sound-1" viewBox="0 0 38 32">
    <path d="M2.316 19.86c-0.672-1.102-1.070-2.434-1.070-3.86s0.398-2.758 1.088-3.893l-0.019 0.033c0.433-0.714 1.137-1.226 1.967-1.397l0.019-0.003 3.386-0.68c0.208-0.042 0.386-0.151 0.515-0.303l0.001-0.001 4.136-4.966c2.364-2.84 3.548-4.26 4.6-3.876 1.058 0.38 1.060 2.23 1.060 5.926v18.324c0 3.694 0 5.54-1.056 5.924-1.054 0.38-2.24-1.040-4.602-3.876l-4.142-4.968c-0.129-0.154-0.306-0.263-0.508-0.305l-0.006-0.001-3.386-0.68c-0.848-0.174-1.551-0.687-1.976-1.387l-0.007-0.013z"></path>
    <path stroke-linejoin="miter" stroke-linecap="round" stroke-miterlimit="4" stroke-width="4" d="M23.072 8.928c1.81 1.81 2.929 4.31 2.929 7.071 0 2.735-1.098 5.213-2.876 7.018l0.001-0.001M31.314 4.686c2.896 2.896 4.687 6.896 4.687 11.314 0 4.375-1.756 8.339-4.601 11.228l0.002-0.002"></path>
    </symbol>
    <symbol id="icon-sound" viewBox="0 0 32 32">
    <path d="M24.48 25.813c-0.364-0.002-0.694-0.149-0.933-0.387l0 0c-0.24-0.241-0.388-0.573-0.388-0.94s0.148-0.699 0.388-0.94l-0 0c1.933-1.931 3.128-4.599 3.128-7.547s-1.196-5.616-3.128-7.547l-0-0c-0.199-0.232-0.321-0.535-0.321-0.867 0-0.736 0.597-1.333 1.333-1.333 0.332 0 0.636 0.121 0.869 0.322l-0.002-0.001c2.412 2.413 3.904 5.745 3.904 9.427s-1.492 7.014-3.904 9.427l0-0c-0.241 0.239-0.573 0.387-0.939 0.387-0.003 0-0.005 0-0.008-0h0z"></path>
    <path d="M20.72 22.053c-0.371-0.002-0.706-0.154-0.946-0.4l-0-0c-0.24-0.241-0.388-0.573-0.388-0.94s0.148-0.699 0.388-0.94l-0 0c0.966-0.965 1.564-2.3 1.564-3.773s-0.598-2.808-1.564-3.773l-0-0c-0.199-0.232-0.321-0.535-0.321-0.867 0-0.736 0.597-1.333 1.333-1.333 0.332 0 0.636 0.121 0.869 0.322l-0.002-0.001c1.446 1.447 2.34 3.446 2.34 5.653s-0.894 4.206-2.34 5.653l0-0c-0.238 0.243-0.567 0.395-0.932 0.4h-0.001zM15.173 5.44c-0.153-0.066-0.33-0.104-0.517-0.104-0.365 0-0.696 0.147-0.937 0.384l0-0-4.933 4.947h-3.453c-1.473 0-2.667 1.194-2.667 2.667v0 5.333c0 1.473 1.194 2.667 2.667 2.667v0h3.453l4.933 4.947c0.241 0.239 0.573 0.387 0.939 0.387 0.003 0 0.005 0 0.008-0h-0c0.009 0 0.019 0 0.029 0 0.174 0 0.338-0.039 0.485-0.11l-0.007 0.003c0.487-0.204 0.824-0.676 0.827-1.226v-18.667c-0.003-0.551-0.339-1.023-0.818-1.223l-0.009-0.003z"></path>
    </symbol>
      </defs>
	<path d="M51.926 0.864l4.522 4.525-24.65 24.656c-0.77 0.775-1.836 1.254-3.014 1.254s-2.244-0.48-3.014-1.254l-24.659-24.656 4.522-4.522 23.146 23.142 23.149-23.149z"></path>
	</symbol>
	<symbol id="icon-tense" viewBox="0 0 32 32">
	<path fill="#fcfafa" style="fill: var(--color1, #fcfafa)" d="M18.4 24c0.212 0 0.416-0.084 0.566-0.234s0.234-0.354 0.234-0.566v-0.626c0.408 0.443 0.902 0.799 1.453 1.044s1.145 0.375 1.747 0.382c1.376-0.114 2.651-0.766 3.55-1.815s1.348-2.408 1.25-3.785c0.097-1.377-0.352-2.737-1.25-3.785s-2.174-1.7-3.55-1.815c-0.602 0.008-1.197 0.138-1.747 0.383s-1.045 0.6-1.453 1.042v-7.826c0-0.212-0.084-0.416-0.234-0.566s-0.354-0.234-0.566-0.234c-0.212 0-0.416 0.084-0.566 0.234s-0.234 0.354-0.234 0.566v16.8c0 0.212 0.084 0.416 0.234 0.566s0.354 0.234 0.566 0.234zM22.4 14.4c0.95 0.117 1.817 0.6 2.415 1.348s0.88 1.699 0.785 2.652c0.095 0.953-0.187 1.905-0.785 2.652s-1.465 1.231-2.415 1.348c-0.95-0.117-1.817-0.6-2.415-1.348s-0.88-1.699-0.785-2.652c-0.095-0.953 0.187-1.905 0.785-2.652s1.465-1.231 2.415-1.348zM7.794 23.814c0.876 0.178 1.782 0.156 2.648-0.065s1.673-0.633 2.358-1.207v0.658c0 0.212 0.084 0.416 0.234 0.566s0.354 0.234 0.566 0.234c0.212 0 0.416-0.084 0.566-0.234s0.234-0.354 0.234-0.566v-6.461c0.081-0.773-0.070-1.552-0.434-2.238s-0.923-1.249-1.608-1.616c-0.933-0.438-1.96-0.639-2.989-0.584-0.874 0.020-1.734 0.219-2.528 0.584-0.188 0.096-0.33 0.262-0.396 0.463s-0.050 0.419 0.045 0.608 0.26 0.332 0.46 0.4c0.2 0.067 0.419 0.053 0.608-0.040 0.591-0.259 1.227-0.4 1.872-0.416 0.76-0.045 1.519 0.098 2.211 0.416 0.381 0.197 0.694 0.503 0.9 0.878s0.296 0.804 0.258 1.231c-0.727-0.226-1.48-0.36-2.24-0.398-1.331-0.109-2.662 0.209-3.8 0.909-0.633 0.388-1.137 0.953-1.451 1.626s-0.422 1.423-0.311 2.157 0.434 1.419 0.931 1.97c0.497 0.551 1.146 0.943 1.864 1.128zM7.643 18.267c0.852-0.507 1.843-0.731 2.83-0.64 0.797 0.040 1.582 0.208 2.326 0.493v2.342c-0.555 0.659-1.266 1.17-2.068 1.485s-1.67 0.426-2.526 0.321c-0.422-0.104-0.803-0.332-1.094-0.655s-0.479-0.725-0.54-1.155c-0.061-0.43 0.009-0.869 0.2-1.259s0.494-0.715 0.871-0.932zM30.4 25.6v0.8c0 0.637-0.253 1.247-0.703 1.697s-1.061 0.703-1.697 0.703h-24c-0.637 0-1.247-0.253-1.697-0.703s-0.703-1.061-0.703-1.697v-0.8c0-0.212 0.084-0.416 0.234-0.566s0.354-0.234 0.566-0.234c0.212 0 0.416 0.084 0.566 0.234s0.234 0.354 0.234 0.566v0.8c0 0.212 0.084 0.416 0.234 0.566s0.353 0.234 0.566 0.234h24c0.212 0 0.416-0.084 0.566-0.234s0.234-0.354 0.234-0.566v-0.8c0-0.212 0.084-0.416 0.234-0.566s0.354-0.234 0.566-0.234c0.212 0 0.416 0.084 0.566 0.234s0.234 0.354 0.234 0.566z"></path>
	</symbol>
	<symbol id="icon-text" viewBox="0 0 32 32">
	<path fill="none" stroke="#fcfafa" style="stroke: var(--color1, #fcfafa)" stroke-linejoin="round" stroke-linecap="round" stroke-miterlimit="4" stroke-width="1.3333" d="M28.597 10.933c0.069 1.4 0.069 3.067 0.069 5.067 0 5.971 0 8.957-1.855 10.812s-4.84 1.855-10.812 1.855c-5.971 0-8.957 0-10.812-1.855s-1.855-4.84-1.855-10.812c0-5.971 0-8.957 1.855-10.812s4.84-1.855 10.812-1.855c1.429 0 2.688 0 3.8 0.027"></path>
	<path fill="none" stroke="#fcfafa" style="stroke: var(--color1, #fcfafa)" stroke-linejoin="round" stroke-linecap="round" stroke-miterlimit="4" stroke-width="1.3333" d="M10.667 15.333c0 0 2 0 4.667 4.667 0 0 6.745-12.223 13.333-14.667"></path>
	</symbol>
	<symbol id="icon-spell" viewBox="0 0 32 32">
	<path fill="#fcfafa" style="fill: var(--color1, #fcfafa)" d="M18.8 26.523l7.113-7.112c0.124-0.124 0.277-0.191 0.459-0.2s0.343 0.058 0.484 0.2c0.141 0.142 0.212 0.3 0.213 0.472s-0.070 0.33-0.213 0.472l-6.54 6.54c-0.216 0.216-0.456 0.373-0.72 0.472-0.266 0.1-0.531 0.149-0.796 0.149s-0.53-0.050-0.795-0.149c-0.265-0.1-0.505-0.257-0.72-0.472l-2.757-2.756c-0.124-0.124-0.191-0.277-0.2-0.459s0.058-0.343 0.2-0.485c0.142-0.142 0.3-0.213 0.472-0.213s0.33 0.071 0.472 0.213l3.328 3.328zM8.261 16.267l-1.643 4.628c-0.060 0.148-0.142 0.257-0.244 0.329s-0.231 0.109-0.383 0.109c-0.249 0-0.434-0.098-0.556-0.293s-0.145-0.404-0.069-0.624l5.811-15.963c0.060-0.153 0.144-0.267 0.255-0.341s0.244-0.112 0.401-0.112h0.503c0.157 0 0.291 0.038 0.401 0.113s0.195 0.188 0.255 0.34l5.76 15.929c0.075 0.244 0.046 0.463-0.087 0.659s-0.326 0.293-0.581 0.292c-0.157 0-0.298-0.042-0.423-0.125s-0.217-0.203-0.277-0.355l-1.557-4.587h-7.565zM8.733 15.067h6.688l-3.355-9.303h-0.081l-3.252 9.303z"></path>
	</symbol>
	<symbol id="icon-next" viewBox="0 0 32 32">
	<path fill="#fcfafa" style="fill: var(--color1, #fcfafa)" d="M10.72 5.345c-0.217-0.127-0.464-0.194-0.715-0.195s-0.498 0.065-0.716 0.19c-0.218 0.125-0.399 0.306-0.525 0.523s-0.192 0.465-0.192 0.716v18.843c0 0.251 0.067 0.498 0.192 0.715s0.307 0.398 0.525 0.523 0.465 0.191 0.716 0.19c0.251-0.001 0.498-0.068 0.715-0.195l16.798-9.817c0.146-0.086 0.268-0.208 0.352-0.355s0.129-0.314 0.129-0.483c0-0.169-0.044-0.336-0.129-0.483s-0.206-0.27-0.352-0.355l-16.798-9.817zM6.857 6.58c0-2.427 2.633-3.939 4.729-2.714l16.797 9.817c1.774 1.037 1.774 3.6 0 4.637l-16.797 9.817c-2.096 1.225-4.729-0.286-4.729-2.713v-18.843z"></path>
	</symbol>
  </defs>
</svg>
