<svg xmlns="http://www.w3.org/2000/svg" aria-hidden="true" style="position:absolute;width:0;height:0;overflow:hidden">
  <defs>
    <symbol id="icon-cup" viewBox="0 0 32 32">
      <path d="M16.666 25.333v-5.005c1.226-.091 2.292-.535 3.199-1.332s1.475-1.801 1.704-3.011c1.411-.166 2.613-.744 3.607-1.735s1.491-2.185 1.491-3.584v-.513c0-.592-.211-1.099-.633-1.52s-.929-.632-1.52-.633h-2.719v-.513c0-.592-.211-1.099-.632-1.52s-.93-.633-1.523-.633h-7.283c-.592 0-1.099.211-1.52.633s-.633.928-.633 1.52V8H7.485c-.592 0-1.099.211-1.52.633s-.632.929-.632 1.52v.513c0 1.398.497 2.593 1.491 3.584s2.196 1.569 3.607 1.733c.229 1.211.797 2.215 1.704 3.012s1.973 1.242 3.199 1.333v5.004h-3.488c-.188 0-.347.064-.475.192s-.192.287-.192.476.064.348.192.475.286.191.475.191h8.308c.189 0 .348-.064.476-.192s.192-.287.191-.476a.65.65 0 0 0-.667-.666h-3.487zm5.128-10.779V9.333h2.719c.239 0 .436.077.589.231s.231.351.231.591v.512c0 .998-.339 1.866-1.016 2.604s-1.517 1.166-2.523 1.284zm-5.8 4.471c-1.227 0-2.268-.429-3.123-1.287s-1.283-1.898-1.283-3.124V7.487c0-.24.077-.437.232-.591a.794.794 0 0 1 .589-.231h7.179c.24 0 .436.077.589.231a.797.797 0 0 1 .232.591v7.128c0 1.225-.429 2.266-1.288 3.124s-1.903 1.285-3.129 1.285zm-5.789-4.471c-1.005-.118-1.847-.546-2.524-1.284s-1.015-1.606-1.015-2.604v-.513c0-.239.077-.436.231-.589s.35-.231.589-.231h2.719v5.221z"/>
    </symbol>
    <symbol id="icon-game7" viewBox="0 0 32 32">
      <path stroke-linecap="round" stroke-width="1.143" d="M10 12v4m-2-2h4m1.553-7.627.669.472a3.083 3.083 0 0 0 3.554 0l.669-.473a5.656 5.656 0 0 1 3.267-1.039h.816c.54 0 1.084.033 1.592.213 3.177 1.128 5.361 5.247 5.204 14.59-.032 1.883-.472 3.963-2.171 4.775a4.248 4.248 0 0 1-1.857.421 3.649 3.649 0 0 1-2.04-.583c-1.22-.799-2.112-2.133-3.405-2.803a5.473 5.473 0 0 0-2.52-.615h-2.665c-.877 0-1.741.211-2.52.613-1.293.672-2.187 2.005-3.404 2.804a3.649 3.649 0 0 1-2.04.583 4.276 4.276 0 0 1-1.857-.421c-1.699-.812-2.139-2.893-2.171-4.775-.159-9.344 2.027-13.463 5.204-14.59.508-.18 1.055-.213 1.592-.213h.816c1.171 0 2.312.363 3.267 1.04z"/>
      <path d="M25.333 13.667a.997.997 0 0 1-1 1 .997.997 0 0 1-1-1 .997.997 0 0 1 1-1 .997.997 0 0 1 1 1zm-4 0a.997.997 0 0 1-1 1 .997.997 0 0 1-1-1 .997.997 0 0 1 1-1 .997.997 0 0 1 1 1zm1-3a.997.997 0 0 1 1 1 .997.997 0 0 1-1 1 .997.997 0 0 1-1-1 .997.997 0 0 1 1-1zm0 4a1.01 1.01 0 0 1 .707.293 1.002 1.002 0 0 1-.707 1.707.997.997 0 0 1-1-1 .997.997 0 0 1 1-1z"/>
    </symbol>
    <symbol id="icon-game" viewBox="0 0 32 32">
    <path stroke-linejoin="round" stroke-linecap="round" stroke-miterlimit="4" stroke-width="1.5" d="M16 8.5v-3c0-0.828 0.672-1.5 1.5-1.5v0c0.828 0 1.5-0.672 1.5-1.5v0-1.5M13 22l-2.25-2.25M10.75 19.75l-2.25-2.25M10.75 19.75l-2.25 2.25M10.75 19.75l2.25-2.25M23.5 21.25v-3M1 19.75c0-4.93 0-7.396 1.362-9.057 0.25-0.303 0.527-0.582 0.831-0.831 1.662-1.362 4.125-1.362 9.057-1.362h7.5c4.932 0 7.396 0 9.057 1.362 0.303 0.25 0.582 0.527 0.831 0.831 1.362 1.662 1.362 4.125 1.362 9.057s0 7.396-1.362 9.057c-0.25 0.303-0.528 0.582-0.831 0.831-1.662 1.362-4.125 1.362-9.057 1.362h-7.5c-4.93 0-7.396 0-9.057-1.362-0.306-0.253-0.578-0.525-0.823-0.821l-0.008-0.010c-1.362-1.662-1.362-4.125-1.362-9.057z"></path>
    </symbol>
    <symbol id="icon-voc7" viewBox="0 0 32 32">
      <path d="M10.154 28c-.964 0-1.787-.34-2.467-1.021a3.353 3.353 0 0 1-1.021-2.465V8c0-1.118.387-2.064 1.161-2.839S9.547 4 10.666 4H23.18c.596 0 1.104.21 1.524.629s.629.928.629 1.525v15.52c0 .185-.055.349-.164.492s-.243.242-.4.295a2.104 2.104 0 0 0-1.144.747 2.049 2.049 0 0 0-.447 1.305c0 .475.144.906.433 1.293s.666.64 1.132.757c.169.06.309.146.421.257s.168.253.168.427v.077a.66.66 0 0 1-.667.675H10.153zM8 21.817c.293-.258.624-.454.992-.589s.756-.203 1.163-.203h13.846V6.153c0-.239-.077-.436-.231-.589s-.35-.231-.589-.231H10.667c-.726 0-1.352.263-1.879.788S8 7.273 8 8v13.818zm5.946-6.902h4.073l.667 1.791a.478.478 0 0 0 .47.32c.181 0 .32-.072.416-.217s.114-.298.053-.457l-2.881-7.671c-.044-.121-.116-.213-.216-.276s-.212-.095-.339-.095h-.42c-.127 0-.24.032-.339.095s-.17.155-.215.276l-2.883 7.653c-.06.176-.04.336.057.479s.238.214.42.213c.109 0 .204-.027.283-.081s.142-.135.187-.24l.667-1.789zm.364-1.007 1.673-4.483h.024l1.648 4.483H14.31zm-4.156 12.758h12.484a3.312 3.312 0 0 1-.587-.976 3.233 3.233 0 0 1-.207-1.179c0-.406.068-.793.203-1.16s.332-.698.591-.993H10.154c-.612 0-1.124.212-1.536.635s-.618.93-.619 1.52c0 .612.206 1.123.619 1.535s.924.618 1.536.619z"/>
    </symbol>
    <symbol id="icon-set7" viewBox="0 0 32 32">
      <path d="m27.517 18.848-.067-.663-.02.001-.023.004.109.657zm0 0 .067.664.023-.003.021-.004-.111-.657zm-5.387 7.309.423-.516-.007-.004-.416.52zm0 0-.423.516.007.005.416-.521zm-12.261 0-.423-.515-.009.008-.011.009.443.497zm0 0 .423.517.011-.009.009-.008-.443-.5zM4.481 13.152v-.667h-.032l-.033.003.065.664zm0 0v.667h.033l.033-.004-.067-.663zm15.028-8.738c-.02-.242-.048-.483-.084-.723a2.018 2.018 0 0 0-.189-.611l-1.185.612c.013.027.036.08.059.219.025.147.044.337.075.635l1.325-.132zm.261 1.604c-.016-.02-.064-.101-.116-.387a17.78 17.78 0 0 1-.143-1.217l-1.328.132c.053.535.097.977.159 1.321.06.336.153.679.368.96l1.06-.809zm.619.256a.664.664 0 0 1-.619-.256l-1.061.808a1.998 1.998 0 0 0 1.857.769l-.177-1.321zm1.317-.951c-.433.356-.729.597-.963.759-.239.165-.331.188-.355.192l.177 1.321c.349-.047.657-.223.939-.419.287-.2.629-.48 1.047-.821l-.845-1.032zm1.136-.748a2.05 2.05 0 0 0-.564.297c-.165.117-.353.272-.572.451l.845 1.032c.231-.189.38-.311.5-.396a.826.826 0 0 1 .197-.115l-.407-1.269zm1.404.07a1.999 1.999 0 0 0-1.404-.069l.407 1.269a.666.666 0 0 1 .467.024l.531-1.224zm1.056.858c-.2-.2-.372-.373-.524-.507a1.993 1.993 0 0 0-.532-.352l-.531 1.224c.028.012.079.04.185.133.111.096.247.232.459.444l.943-.943zm1.191 1.191-1.191-1.191-.943.943 1.191 1.191.943-.943zm.858 1.056a2.02 2.02 0 0 0-.353-.532c-.133-.152-.307-.324-.505-.524l-.943.943c.212.212.347.348.445.459.093.107.12.157.132.185l1.224-.531zm.07 1.404c.148-.461.123-.96-.069-1.404l-1.224.531a.665.665 0 0 1 .023.467l1.271.407zm-.748 1.136c.179-.219.333-.407.451-.572.12-.171.229-.351.297-.564l-1.271-.407a.787.787 0 0 1-.113.197c-.127.171-.259.337-.396.5l1.032.845zm-.951 1.317c.004-.024.027-.116.192-.355.161-.233.403-.529.759-.963l-1.032-.845c-.341.417-.623.76-.821 1.047-.196.28-.372.589-.419.939l1.321.177zm.256.619c-.093-.071-.166-.166-.211-.275s-.06-.227-.045-.344l-1.321-.177a2.001 2.001 0 0 0 .77 1.856l.808-1.06zm1.604.26c-.559-.056-.937-.093-1.217-.144-.285-.052-.367-.1-.387-.116l-.808 1.06c.28.213.623.307.96.368.343.061.784.107 1.32.16l.132-1.328zm1.333.275a2.009 2.009 0 0 0-.611-.189c-.2-.033-.443-.057-.723-.085l-.133 1.327c.299.031.489.049.636.075a.799.799 0 0 1 .219.059l.612-1.185zm.943 1.041a1.995 1.995 0 0 0-.943-1.041l-.612 1.185a.672.672 0 0 1 .315.347l1.24-.491zm.14 1.353c0-.281 0-.525-.013-.728a1.994 1.994 0 0 0-.127-.625l-1.24.491a.758.758 0 0 1 .036.224c.01.213.014.427.011.64l1.333-.001zm0 1.686v-1.685h-1.333v1.685h1.333zm-.14 1.352c.083-.208.113-.416.127-.625.013-.201.013-.445.013-.727h-1.333c0 .299 0 .491-.011.639a.777.777 0 0 1-.036.224l1.24.489zm-.943 1.042c.43-.222.765-.593.943-1.043l-1.24-.489a.663.663 0 0 1-.315.347l.612 1.185zm-1.333.275c.28-.028.524-.053.723-.087.207-.033.411-.085.609-.187l-.611-1.187a.79.79 0 0 1-.219.059c-.147.025-.337.044-.635.075l.132 1.327zm-1.603.26c.02-.016.101-.065.387-.116.28-.051.659-.089 1.216-.144l-.132-1.327c-.535.053-.977.096-1.321.159-.336.06-.677.153-.959.367l.809 1.061zm-.257.619a.664.664 0 0 1 .257-.619l-.809-1.061a1.998 1.998 0 0 0-.769 1.857l1.321-.177zm.951 1.317a17.639 17.639 0 0 1-.759-.963c-.165-.237-.188-.331-.192-.355l-1.32.179c.047.349.223.656.417.937.2.285.48.629.821 1.045l1.032-.844zm.748 1.136a2.01 2.01 0 0 0-.297-.565 11.772 11.772 0 0 0-.451-.571l-1.032.844c.189.232.311.38.396.501a.8.8 0 0 1 .113.196l1.271-.405zm-.07 1.404c.192-.444.217-.943.069-1.404l-1.271.405a.668.668 0 0 1-.023.468l1.224.531zm-.857 1.055c.199-.199.371-.371.504-.523.139-.159.264-.325.353-.532l-1.224-.531a.799.799 0 0 1-.133.184c-.143.157-.291.31-.444.459l.944.943zm-1.192 1.192 1.192-1.192-.944-.943-1.191 1.192.943.943zm-1.056.857c.205-.089.373-.213.532-.352.152-.133.324-.307.524-.507l-.943-.941c-.212.212-.348.347-.459.444a.784.784 0 0 1-.185.133l.531 1.223zm-1.404.071c.461.147.96.122 1.404-.071l-.531-1.223a.665.665 0 0 1-.467.023l-.407 1.271zm-1.136-.75c.219.179.407.333.572.451.171.121.351.231.564.299l.407-1.271a.787.787 0 0 1-.197-.113c-.171-.127-.337-.26-.5-.397l-.845 1.032zm-1.317-.949c.024.003.117.027.355.192.233.161.529.403.963.757l.845-1.032c-.417-.34-.76-.621-1.047-.821-.28-.195-.589-.371-.939-.417l-.177 1.321zm-.619.256c.071-.093.166-.166.275-.211s.227-.06.344-.045l.177-1.321a1.997 1.997 0 0 0-1.856.768l1.06.809zm-.26 1.604c.056-.559.093-.937.144-1.217.052-.285.1-.367.116-.387l-1.06-.809c-.213.28-.307.624-.368.96-.061.343-.107.784-.16 1.32l1.328.133zm-.275 1.333c.103-.2.153-.404.188-.611.035-.2.059-.443.087-.723l-1.328-.133c-.019.213-.042.425-.073.636a.799.799 0 0 1-.059.219l1.185.612zm-1.041.943c.45-.178.82-.513 1.041-.943l-1.185-.612a.672.672 0 0 1-.347.315l.491 1.24zm-1.353.14c.281 0 .525 0 .728-.013.208-.013.417-.044.625-.127l-.491-1.24a.777.777 0 0 1-.224.036c-.147.011-.34.011-.64.011l.001 1.333zm-1.686 0h1.685l-.001-1.333h-1.684v1.333zm-1.353-.14c.209.083.417.113.627.127.201.013.445.013.727.013v-1.333c-.299 0-.491 0-.639-.011a.813.813 0 0 1-.224-.036l-.491 1.24zm-1.041-.943c.222.43.592.765 1.041.943l.491-1.24a.663.663 0 0 1-.347-.315l-1.185.612zm-.275-1.333c.027.282.055.523.085.723.035.207.087.411.189.611l1.185-.612a.79.79 0 0 1-.059-.219 11.217 11.217 0 0 1-.075-.635l-1.327.132zm-.26-1.604c.016.02.064.101.116.387.051.28.088.66.144 1.217l1.327-.132a18.376 18.376 0 0 0-.159-1.321c-.06-.336-.153-.679-.368-.96l-1.06.809zm-.619-.256a.664.664 0 0 1 .619.256l1.06-.809c-.214-.281-.498-.498-.824-.633s-.682-.182-1.032-.135l.177 1.321zm-1.317.951c.433-.356.729-.597.963-.759.239-.165.331-.189.355-.192l-.177-1.321c-.349.047-.657.223-.939.419-.287.199-.629.48-1.047.821l.845 1.032zm-1.136.748a2.05 2.05 0 0 0 .564-.297c.165-.117.353-.272.572-.451l-.845-1.032c-.163.137-.329.269-.5.396a.805.805 0 0 1-.197.113l.407 1.271zm-1.404-.068c.444.192.943.215 1.404.068l-.407-1.271a.665.665 0 0 1-.467-.023l-.531 1.225zm-1.056-.86c.2.2.372.373.524.507.157.137.327.264.532.353l.531-1.225a.784.784 0 0 1-.185-.133c-.157-.143-.31-.291-.459-.444l-.943.943zm-1.191-1.191 1.191 1.191.943-.943-1.191-1.191-.943.943zm-.858-1.056c.089.205.215.373.353.532.133.152.307.324.505.524l.943-.943a10.152 10.152 0 0 1-.445-.459.784.784 0 0 1-.133-.185l-1.223.531zm-.07-1.404c-.148.461-.123.96.069 1.404l1.223-.531a.67.67 0 0 1-.023-.467l-1.269-.407zm.748-1.136c-.179.219-.333.407-.451.572a1.98 1.98 0 0 0-.297.564l1.269.407a.794.794 0 0 1 .115-.197c.085-.12.207-.269.396-.5l-1.032-.845zm.951-1.317c-.004.024-.027.116-.192.355-.163.233-.403.529-.759.963l1.032.845c.341-.417.623-.76.821-1.047.196-.28.372-.589.419-.939l-1.321-.177zm-.256-.619a.666.666 0 0 1 .256.619l1.321.177a2.001 2.001 0 0 0-.77-1.856l-.808 1.06zm-1.604-.259c.559.055.937.092 1.217.143.285.052.367.1.387.116l.808-1.061c-.28-.213-.623-.307-.96-.367a18.697 18.697 0 0 0-1.32-.16l-.132 1.329zm-1.333-.276c.2.103.404.153.611.188.2.035.441.06.723.088l.133-1.328a9.672 9.672 0 0 1-.636-.075.799.799 0 0 1-.219-.059l-.612 1.185zm-.943-1.042c.178.45.513.821.943 1.043l.612-1.185a.672.672 0 0 1-.315-.347l-1.24.489zM2 16.843c0 .281 0 .525.013.728.009.213.051.424.127.624l1.24-.489a.777.777 0 0 1-.036-.224 10.51 10.51 0 0 1-.011-.64L2 16.843zm0-1.685v1.685h1.333v-1.685H2zm.139-1.353a2.006 2.006 0 0 0-.127.627c-.013.201-.013.445-.013.727h1.333c0-.299 0-.491.011-.639a.777.777 0 0 1 .036-.224l-1.24-.491zm.943-1.042c-.43.222-.765.592-.943 1.041l1.24.491a.668.668 0 0 1 .315-.347l-.612-1.185zm1.333-.276c-.282.027-.523.056-.723.087-.212.03-.419.094-.611.189l.612 1.185a.767.767 0 0 1 .219-.059c.147-.025.337-.044.635-.075l-.132-1.328zm1.604-.258c-.02.016-.101.064-.387.116-.28.051-.659.087-1.217.143l.132 1.328c.535-.053.979-.097 1.321-.159.337-.06.68-.153.96-.368l-.809-1.06zm.256-.619a.664.664 0 0 1-.256.619l.809 1.06a2.004 2.004 0 0 0 .768-1.858l-1.321.179zm-.95-1.319c.356.435.597.731.76.964.165.239.187.331.191.355l1.321-.179c-.047-.349-.223-.656-.419-.937-.199-.287-.48-.629-.821-1.047l-1.032.844zm-.748-1.136c.067.213.176.395.297.565.117.164.272.353.451.571l1.032-.844c-.137-.163-.269-.33-.396-.501a.84.84 0 0 1-.115-.196l-1.269.405zm.069-1.402a1.996 1.996 0 0 0-.069 1.403l1.269-.405a.666.666 0 0 1 .024-.467l-1.224-.531zm.859-1.056c-.2.199-.373.371-.507.524a1.993 1.993 0 0 0-.352.532l1.224.531a.784.784 0 0 1 .133-.185c.143-.158.291-.311.444-.459l-.943-.943zm1.19-1.192L5.504 6.697l.943.943 1.191-1.192-.943-.943zm1.056-.858a1.993 1.993 0 0 0-.532.352c-.152.133-.325.305-.524.505l.943.943c.212-.211.348-.347.459-.444a.8.8 0 0 1 .185-.133l-.531-1.223zm1.404-.07a1.999 1.999 0 0 0-1.404.071l.531 1.223a.67.67 0 0 1 .467-.023l.407-1.271zm1.136.749c-.219-.179-.407-.333-.572-.451a2.01 2.01 0 0 0-.564-.299l-.407 1.271a.787.787 0 0 1 .197.113c.12.087.269.208.501.397l.844-1.032zm1.318.951c-.024-.004-.116-.027-.355-.192-.33-.242-.651-.494-.963-.759l-.844 1.032c.416.341.76.623 1.045.821.28.195.589.371.939.419l.177-1.321zm.618-.258a.66.66 0 0 1-.619.257l-.177 1.321a2.001 2.001 0 0 0 1.857-.769l-1.061-.809zm.26-1.602c-.056.557-.093.937-.144 1.216-.052.285-.1.367-.116.387l1.061.809c.213-.28.307-.623.367-.96.061-.343.107-.784.16-1.32l-1.328-.132zm.275-1.334c-.103.2-.155.404-.189.611-.033.2-.057.441-.085.723l1.327.133c.018-.213.043-.425.075-.636a.799.799 0 0 1 .059-.219l-1.185-.612zm1.043-.942c-.45.178-.821.512-1.043.943l1.185.612a.672.672 0 0 1 .347-.315l-.489-1.24zm1.352-.14c-.281 0-.525 0-.728.013a1.993 1.993 0 0 0-.624.127l.489 1.24a.777.777 0 0 1 .224-.036c.147-.011.34-.011.64-.011l-.001-1.333zm1.685 0h-1.685v1.333h1.685V2.001zm1.353.14a2.006 2.006 0 0 0-.627-.127c-.201-.013-.445-.013-.727-.013v1.333c.299 0 .491 0 .639.011a.777.777 0 0 1 .224.036l.491-1.24zm1.042.942a2.003 2.003 0 0 0-1.043-.943l-.489 1.24c.15.06.273.171.347.315l1.185-.612zm1.429 12.916a4.667 4.667 0 0 1-4.667 4.667v1.333a5.996 5.996 0 0 0 6-6h-1.333zm-4.667-4.666A4.667 4.667 0 0 1 20.666 16h1.333a5.996 5.996 0 0 0-6-6v1.333zm-4.666 4.666A4.667 4.667 0 0 1 16 11.332V9.999a5.996 5.996 0 0 0-6 6h1.333zm4.666 4.667a4.667 4.667 0 0 1-4.667-4.667H9.999a5.996 5.996 0 0 0 6 6v-1.333z"/>
    </symbol>
    <symbol id="icon-share" viewBox="0 0 32 32">
      <path stroke-linecap="round" stroke-linejoin="round" stroke-width="1.143" d="m19.333 8.667-6.667 4.667m6.667 9.999-6.667-4.667M12.667 16A3.333 3.333 0 1 1 6 16a3.333 3.333 0 0 1 6.667 0zM26 24.667a3.333 3.333 0 1 1-6.667 0 3.333 3.333 0 0 1 6.667 0zm0-17.334a3.333 3.333 0 1 1-6.667 0 3.333 3.333 0 0 1 6.667 0z"/>
    </symbol>
    <symbol id="icon-password" viewBox="0 0 28 32">
    <path d="M9 9v3h10v-3c0-2.761-2.239-5-5-5s-5 2.239-5 5v0zM5 12v-3c0.106-4.889 4.095-8.812 9-8.812s8.894 3.923 9 8.802l0 0.010v3h1c2.206 0 4 1.794 4 4v12c0 2.206-1.794 4-4 4h-20c-2.206 0-4-1.794-4-4v-12c0-2.206 1.794-4 4-4h1z"></path>
    </symbol>
    <symbol id="icon-email" viewBox="0 0 32 32">
    <path fill="none" stroke="#e5e7eb" style="stroke: var(--color2, #e5e7eb)" stroke-linejoin="miter" stroke-linecap="butt" stroke-miterlimit="4" stroke-width="2" d="M32 32h-32v-32h32v32z"></path>
    <path fill="#bcbebf" style="fill: var(--color1, #bcbebf)" d="M4 7c-0.55 0-1 0.45-1 1v1.38l10.78 8.852c0.599 0.497 1.376 0.798 2.223 0.798s1.624-0.301 2.229-0.802l-0.006 0.005 10.774-8.852v-1.38c0-0.55-0.45-1-1-1h-24zM3 13.262v10.738c0 0.55 0.45 1 1 1h24c0.55 0 1-0.45 1-1v-10.738l-8.876 7.288c-1.113 0.919-2.553 1.476-4.124 1.476s-3.011-0.557-4.135-1.485l0.011 0.009-8.876-7.288zM0 8c0-2.206 1.794-4 4-4h24c2.206 0 4 1.794 4 4v16c0 2.206-1.794 4-4 4h-24c-2.206 0-4-1.794-4-4v-16z"></path>
    </symbol>
    <symbol id="icon-user" viewBox="0 0 28 32">
    <path d="M19 8c0-2.761-2.239-5-5-5s-5 2.239-5 5v0c0 2.761 2.239 5 5 5s5-2.239 5-5v0zM6 8c0-4.418 3.582-8 8-8s8 3.582 8 8v0c0 4.418-3.582 8-8 8s-8-3.582-8-8v0zM3.080 29h21.84c-0.581-3.979-3.97-7-8.065-7-0 0-0.001 0-0.001 0h-5.71c-4.093 0.002-7.481 3.022-8.057 6.956l-0.005 0.044zM0 30.144c0-0.001 0-0.003 0-0.004 0-6.152 4.988-11.14 11.14-11.14 0.001 0 0.003 0 0.004 0h5.712c0.001 0 0.003 0 0.004 0 6.152 0 11.14 4.988 11.14 11.14 0 0.001 0 0.003 0 0.004v-0c0 1.025-0.831 1.856-1.856 1.856v0h-24.288c-1.025 0-1.856-0.831-1.856-1.856v0z"></path>
    </symbol>
    <symbol id="icon-google" viewBox="0 0 30 32">
    <path d="M29.762 16.346c0 8.422-5.768 14.415-14.286 14.415-0.005 0-0.010 0-0.015 0-8.143 0-14.744-6.601-14.744-14.744 0-0.006 0-0.012 0-0.018v0.001c0-0.005 0-0.012 0-0.018 0-8.143 6.601-14.744 14.744-14.744 0.005 0 0.011 0 0.016 0h-0.001c3.977 0 7.322 1.46 9.899 3.864l-4.017 3.863c-5.257-5.071-15.031-1.262-15.031 7.035 0 5.149 4.114 9.321 9.149 9.321 5.845 0 8.037-4.19 8.381-6.363h-8.381v-5.076h14.054c0.137 0.756 0.232 1.483 0.232 2.466z"></path>
    </symbol>
    <symbol id="icon-facebook" viewBox="0 0 30 32">
    <path d="M30.001 16c0-0.001 0-0.002 0-0.003 0-8.152-6.608-14.76-14.76-14.76-0.001 0-0.002 0-0.003 0h0c-0.001 0-0.002 0-0.003 0-8.152 0-14.76 6.608-14.76 14.76 0 0.001 0 0.002 0 0.003v-0c0 7.368 5.399 13.475 12.456 14.583v-10.316h-3.749v-4.267h3.749v-3.252c0-3.7 2.203-5.745 5.577-5.745 1.615 0 3.304 0.29 3.304 0.29v3.631h-1.862c-1.833 0-2.405 1.138-2.405 2.306v2.77h4.093l-0.655 4.267h-3.438v10.316c7.055-1.108 12.456-7.215 12.456-14.583z"></path>
    </symbol>
    <symbol id="icon-accordion-arrow" viewBox="0 0 58 32">
    <path d="M51.926 0.864l4.522 4.525-24.65 24.656c-0.77 0.775-1.836 1.254-3.014 1.254s-2.244-0.48-3.014-1.254l-24.659-24.656 4.522-4.522 23.146 23.142 23.149-23.149z"></path>
    </symbol>
    <symbol id="icon-sound-1" viewBox="0 0 38 32">
    <path d="M2.316 19.86c-0.672-1.102-1.070-2.434-1.070-3.86s0.398-2.758 1.088-3.893l-0.019 0.033c0.433-0.714 1.137-1.226 1.967-1.397l0.019-0.003 3.386-0.68c0.208-0.042 0.386-0.151 0.515-0.303l0.001-0.001 4.136-4.966c2.364-2.84 3.548-4.26 4.6-3.876 1.058 0.38 1.060 2.23 1.060 5.926v18.324c0 3.694 0 5.54-1.056 5.924-1.054 0.38-2.24-1.040-4.602-3.876l-4.142-4.968c-0.129-0.154-0.306-0.263-0.508-0.305l-0.006-0.001-3.386-0.68c-0.848-0.174-1.551-0.687-1.976-1.387l-0.007-0.013z"></path>
    <path stroke-linejoin="miter" stroke-linecap="round" stroke-miterlimit="4" stroke-width="4" d="M23.072 8.928c1.81 1.81 2.929 4.31 2.929 7.071 0 2.735-1.098 5.213-2.876 7.018l0.001-0.001M31.314 4.686c2.896 2.896 4.687 6.896 4.687 11.314 0 4.375-1.756 8.339-4.601 11.228l0.002-0.002"></path>
    </symbol>
    <symbol id="icon-sound" viewBox="0 0 32 32">
    <path d="M24.48 25.813c-0.364-0.002-0.694-0.149-0.933-0.387l0 0c-0.24-0.241-0.388-0.573-0.388-0.94s0.148-0.699 0.388-0.94l-0 0c1.933-1.931 3.128-4.599 3.128-7.547s-1.196-5.616-3.128-7.547l-0-0c-0.199-0.232-0.321-0.535-0.321-0.867 0-0.736 0.597-1.333 1.333-1.333 0.332 0 0.636 0.121 0.869 0.322l-0.002-0.001c2.412 2.413 3.904 5.745 3.904 9.427s-1.492 7.014-3.904 9.427l0-0c-0.241 0.239-0.573 0.387-0.939 0.387-0.003 0-0.005 0-0.008-0h0z"></path>
    <path d="M20.72 22.053c-0.371-0.002-0.706-0.154-0.946-0.4l-0-0c-0.24-0.241-0.388-0.573-0.388-0.94s0.148-0.699 0.388-0.94l-0 0c0.966-0.965 1.564-2.3 1.564-3.773s-0.598-2.808-1.564-3.773l-0-0c-0.199-0.232-0.321-0.535-0.321-0.867 0-0.736 0.597-1.333 1.333-1.333 0.332 0 0.636 0.121 0.869 0.322l-0.002-0.001c1.446 1.447 2.34 3.446 2.34 5.653s-0.894 4.206-2.34 5.653l0-0c-0.238 0.243-0.567 0.395-0.932 0.4h-0.001zM15.173 5.44c-0.153-0.066-0.33-0.104-0.517-0.104-0.365 0-0.696 0.147-0.937 0.384l0-0-4.933 4.947h-3.453c-1.473 0-2.667 1.194-2.667 2.667v0 5.333c0 1.473 1.194 2.667 2.667 2.667v0h3.453l4.933 4.947c0.241 0.239 0.573 0.387 0.939 0.387 0.003 0 0.005 0 0.008-0h-0c0.009 0 0.019 0 0.029 0 0.174 0 0.338-0.039 0.485-0.11l-0.007 0.003c0.487-0.204 0.824-0.676 0.827-1.226v-18.667c-0.003-0.551-0.339-1.023-0.818-1.223l-0.009-0.003z"></path>
    </symbol>
   <symbol id="icon-tense" viewBox="0 0 32 32">
	<path fill="#fcfafa" style="fill: var(--color1, #fcfafa)" d="M18.4 24c0.212 0 0.416-0.084 0.566-0.234s0.234-0.354 0.234-0.566v-0.626c0.408 0.443 0.902 0.799 1.453 1.044s1.145 0.375 1.747 0.382c1.376-0.114 2.651-0.766 3.55-1.815s1.348-2.408 1.25-3.785c0.097-1.377-0.352-2.737-1.25-3.785s-2.174-1.7-3.55-1.815c-0.602 0.008-1.197 0.138-1.747 0.383s-1.045 0.6-1.453 1.042v-7.826c0-0.212-0.084-0.416-0.234-0.566s-0.354-0.234-0.566-0.234c-0.212 0-0.416 0.084-0.566 0.234s-0.234 0.354-0.234 0.566v16.8c0 0.212 0.084 0.416 0.234 0.566s0.354 0.234 0.566 0.234zM22.4 14.4c0.95 0.117 1.817 0.6 2.415 1.348s0.88 1.699 0.785 2.652c0.095 0.953-0.187 1.905-0.785 2.652s-1.465 1.231-2.415 1.348c-0.95-0.117-1.817-0.6-2.415-1.348s-0.88-1.699-0.785-2.652c-0.095-0.953 0.187-1.905 0.785-2.652s1.465-1.231 2.415-1.348zM7.794 23.814c0.876 0.178 1.782 0.156 2.648-0.065s1.673-0.633 2.358-1.207v0.658c0 0.212 0.084 0.416 0.234 0.566s0.354 0.234 0.566 0.234c0.212 0 0.416-0.084 0.566-0.234s0.234-0.354 0.234-0.566v-6.461c0.081-0.773-0.070-1.552-0.434-2.238s-0.923-1.249-1.608-1.616c-0.933-0.438-1.96-0.639-2.989-0.584-0.874 0.020-1.734 0.219-2.528 0.584-0.188 0.096-0.33 0.262-0.396 0.463s-0.050 0.419 0.045 0.608 0.26 0.332 0.46 0.4c0.2 0.067 0.419 0.053 0.608-0.040 0.591-0.259 1.227-0.4 1.872-0.416 0.76-0.045 1.519 0.098 2.211 0.416 0.381 0.197 0.694 0.503 0.9 0.878s0.296 0.804 0.258 1.231c-0.727-0.226-1.48-0.36-2.24-0.398-1.331-0.109-2.662 0.209-3.8 0.909-0.633 0.388-1.137 0.953-1.451 1.626s-0.422 1.423-0.311 2.157 0.434 1.419 0.931 1.97c0.497 0.551 1.146 0.943 1.864 1.128zM7.643 18.267c0.852-0.507 1.843-0.731 2.83-0.64 0.797 0.040 1.582 0.208 2.326 0.493v2.342c-0.555 0.659-1.266 1.17-2.068 1.485s-1.67 0.426-2.526 0.321c-0.422-0.104-0.803-0.332-1.094-0.655s-0.479-0.725-0.54-1.155c-0.061-0.43 0.009-0.869 0.2-1.259s0.494-0.715 0.871-0.932zM30.4 25.6v0.8c0 0.637-0.253 1.247-0.703 1.697s-1.061 0.703-1.697 0.703h-24c-0.637 0-1.247-0.253-1.697-0.703s-0.703-1.061-0.703-1.697v-0.8c0-0.212 0.084-0.416 0.234-0.566s0.354-0.234 0.566-0.234c0.212 0 0.416 0.084 0.566 0.234s0.234 0.354 0.234 0.566v0.8c0 0.212 0.084 0.416 0.234 0.566s0.353 0.234 0.566 0.234h24c0.212 0 0.416-0.084 0.566-0.234s0.234-0.354 0.234-0.566v-0.8c0-0.212 0.084-0.416 0.234-0.566s0.354-0.234 0.566-0.234c0.212 0 0.416 0.084 0.566 0.234s0.234 0.354 0.234 0.566z"></path>
	</symbol>
	<symbol id="icon-text" viewBox="0 0 32 32">
	<path fill="none" stroke="#fcfafa" style="stroke: var(--color1, #fcfafa)" stroke-linejoin="round" stroke-linecap="round" stroke-miterlimit="4" stroke-width="1.3333" d="M28.597 10.933c0.069 1.4 0.069 3.067 0.069 5.067 0 5.971 0 8.957-1.855 10.812s-4.84 1.855-10.812 1.855c-5.971 0-8.957 0-10.812-1.855s-1.855-4.84-1.855-10.812c0-5.971 0-8.957 1.855-10.812s4.84-1.855 10.812-1.855c1.429 0 2.688 0 3.8 0.027"></path>
	<path fill="none" stroke="#fcfafa" style="stroke: var(--color1, #fcfafa)" stroke-linejoin="round" stroke-linecap="round" stroke-miterlimit="4" stroke-width="1.3333" d="M10.667 15.333c0 0 2 0 4.667 4.667 0 0 6.745-12.223 13.333-14.667"></path>
	</symbol>
	<symbol id="icon-spell" viewBox="0 0 32 32">
	<path fill="#fcfafa" style="fill: var(--color1, #fcfafa)" d="M18.8 26.523l7.113-7.112c0.124-0.124 0.277-0.191 0.459-0.2s0.343 0.058 0.484 0.2c0.141 0.142 0.212 0.3 0.213 0.472s-0.070 0.33-0.213 0.472l-6.54 6.54c-0.216 0.216-0.456 0.373-0.72 0.472-0.266 0.1-0.531 0.149-0.796 0.149s-0.53-0.050-0.795-0.149c-0.265-0.1-0.505-0.257-0.72-0.472l-2.757-2.756c-0.124-0.124-0.191-0.277-0.2-0.459s0.058-0.343 0.2-0.485c0.142-0.142 0.3-0.213 0.472-0.213s0.33 0.071 0.472 0.213l3.328 3.328zM8.261 16.267l-1.643 4.628c-0.060 0.148-0.142 0.257-0.244 0.329s-0.231 0.109-0.383 0.109c-0.249 0-0.434-0.098-0.556-0.293s-0.145-0.404-0.069-0.624l5.811-15.963c0.060-0.153 0.144-0.267 0.255-0.341s0.244-0.112 0.401-0.112h0.503c0.157 0 0.291 0.038 0.401 0.113s0.195 0.188 0.255 0.34l5.76 15.929c0.075 0.244 0.046 0.463-0.087 0.659s-0.326 0.293-0.581 0.292c-0.157 0-0.298-0.042-0.423-0.125s-0.217-0.203-0.277-0.355l-1.557-4.587h-7.565zM8.733 15.067h6.688l-3.355-9.303h-0.081l-3.252 9.303z"></path>
	</symbol>
	<symbol id="icon-next" viewBox="0 0 32 32">
	<path fill="#fcfafa" style="fill: var(--color1, #fcfafa)" d="M10.72 5.345c-0.217-0.127-0.464-0.194-0.715-0.195s-0.498 0.065-0.716 0.19c-0.218 0.125-0.399 0.306-0.525 0.523s-0.192 0.465-0.192 0.716v18.843c0 0.251 0.067 0.498 0.192 0.715s0.307 0.398 0.525 0.523 0.465 0.191 0.716 0.19c0.251-0.001 0.498-0.068 0.715-0.195l16.798-9.817c0.146-0.086 0.268-0.208 0.352-0.355s0.129-0.314 0.129-0.483c0-0.169-0.044-0.336-0.129-0.483s-0.206-0.27-0.352-0.355l-16.798-9.817zM6.857 6.58c0-2.427 2.633-3.939 4.729-2.714l16.797 9.817c1.774 1.037 1.774 3.6 0 4.637l-16.797 9.817c-2.096 1.225-4.729-0.286-4.729-2.713v-18.843z"></path>
	</symbol>
	<symbol id="icon-big-star" viewBox="0 0 32 32">
	<path fill="#e09618" style="fill: var(--color1, #e09618)" d="M14.566 3.913c0.132-0.268 0.336-0.494 0.59-0.651s0.546-0.241 0.845-0.241c0.299 0 0.591 0.084 0.845 0.241s0.458 0.383 0.59 0.651l3.088 6.256 6.907 1.005c0.296 0.043 0.573 0.168 0.801 0.36s0.398 0.445 0.49 0.729c0.092 0.284 0.103 0.588 0.032 0.878s-0.223 0.554-0.437 0.762l-4.998 4.87 1.181 6.88c0.050 0.294 0.017 0.597-0.095 0.873s-0.3 0.516-0.542 0.692c-0.242 0.175-0.527 0.28-0.825 0.301s-0.596-0.041-0.86-0.18l-6.176-3.248-6.179 3.248c-0.264 0.139-0.562 0.201-0.86 0.179s-0.583-0.126-0.825-0.302c-0.241-0.176-0.429-0.415-0.541-0.692s-0.145-0.579-0.094-0.873l1.179-6.878-4.998-4.87c-0.214-0.208-0.365-0.472-0.437-0.762s-0.061-0.594 0.031-0.878c0.092-0.284 0.262-0.537 0.49-0.729s0.506-0.317 0.801-0.36l6.907-1.003 3.088-6.258zM16.002 4.62l-3.088 6.258c-0.115 0.233-0.284 0.434-0.494 0.586s-0.454 0.252-0.71 0.289l-6.909 1.005 4.998 4.87c0.186 0.181 0.324 0.405 0.404 0.651s0.099 0.509 0.055 0.765l-1.179 6.88 6.176-3.248c0.23-0.121 0.485-0.184 0.745-0.184s0.515 0.063 0.745 0.184l6.178 3.248-1.179-6.88c-0.044-0.256-0.025-0.518 0.055-0.765s0.219-0.47 0.404-0.651l4.998-4.87-6.907-1.005c-0.256-0.038-0.5-0.137-0.71-0.289s-0.379-0.354-0.494-0.586l-3.088-6.258z"></path>
	</symbol>
	<symbol id="icon-no" viewBox="0 0 34 32">
	<path fill="none" stroke="#f97316" style="stroke: var(--color2, #f97316)" stroke-linejoin="miter" stroke-linecap="round" stroke-miterlimit="4" stroke-width="4.4444" d="M3.556 3.556l13.333 12.444M30.222 28.444l-13.333-12.444M16.889 16l13.333-12.444M16.889 16l-13.333 12.444"></path>
	</symbol>
	<symbol id="icon-star" viewBox="0 0 36 32">
	<path fill="#fbbf24" style="fill: var(--color3, #fbbf24)" d="M19.677 1.125c-0.329-0.688-1.025-1.125-1.788-1.125s-1.453 0.438-1.788 1.125l-3.992 8.269-8.916 1.325c-0.745 0.113-1.366 0.637-1.596 1.356s-0.043 1.512 0.491 2.044l6.47 6.444-1.527 9.106c-0.124 0.75 0.186 1.512 0.801 1.956s1.428 0.5 2.099 0.144l7.966-4.281 7.966 4.281c0.671 0.356 1.484 0.306 2.099-0.144s0.925-1.206 0.801-1.956l-1.534-9.106 6.47-6.444c0.534-0.531 0.727-1.325 0.491-2.044s-0.851-1.244-1.596-1.356l-8.923-1.325-3.992-8.269z"></path>
	</symbol>
	<symbol id="icon-yes" viewBox="0 0 23 32">
	<path fill="#0d9467" style="fill: var(--color4, #0d9467)" d="M22.686 8.762c0.646 0.647 0.646 1.697 0 2.343l-13.241 13.241c-0.647 0.646-1.697 0.646-2.343 0l-6.621-6.621c-0.647-0.647-0.647-1.697 0-2.343s1.697-0.646 2.343 0l5.452 5.447 12.072-12.067c0.647-0.647 1.697-0.647 2.343 0h-0.005z"></path>
	</symbol>
  

  <symbol id="icon-vocabulary" viewBox="0 0 27 32">
<path stroke-linejoin="round" stroke-linecap="round" stroke-miterlimit="4" stroke-width="1.5" d="M1 23.393v-10.393c0-5.657 0-8.486 1.724-10.242 1.723-1.756 4.495-1.758 10.040-1.758h1.471c5.546 0 8.32 0 10.041 1.758 1.724 1.758 1.724 4.585 1.724 10.242v14.25"></path>
<path stroke-linejoin="round" stroke-linecap="round" stroke-miterlimit="4" stroke-width="1.5" d="M19.382 2.5v5.535c0 1.11 0 1.665-0.35 1.881-0.014 0.010-0.029 0.018-0.046 0.024l-0.001 0.001c-0.364 0.19-0.84-0.096-1.792-0.667-0.712-0.426-1.067-0.64-1.46-0.648h-0.054c-0.394 0.007-0.75 0.222-1.46 0.648-0.953 0.571-1.428 0.857-1.794 0.667l-0.044-0.025c-0.352-0.216-0.352-0.771-0.352-1.881v-5.535M1 23.5h21.323c0.976 0 1.91 0.395 2.6 1.098 0.666 0.682 1.077 1.616 1.077 2.646 0 0.002 0 0.004 0 0.007v-0c0 0.994-0.387 1.948-1.077 2.651-0.66 0.677-1.581 1.097-2.6 1.099h-21.323"></path>
<path stroke-linejoin="round" stroke-linecap="round" stroke-miterlimit="4" stroke-width="1.5" d="M1 23.5c0.975 0 1.91 0.395 2.6 1.098 0.666 0.682 1.076 1.616 1.076 2.645 0 0.002 0 0.005 0 0.007v-0c0 0.994-0.387 1.948-1.077 2.652-0.66 0.676-1.58 1.096-2.599 1.098h-0"></path>
</symbol>

<symbol id="icon-home" viewBox="0 0 32 32">
<path stroke-linejoin="round" stroke-linecap="round" stroke-miterlimit="4" stroke-width="1.5" d="M11.5 31l-0.376-5.264c-0.008-0.108-0.013-0.234-0.013-0.361 0-2.699 2.188-4.887 4.887-4.887 2.12 0 3.925 1.35 4.602 3.238l0.011 0.034c0.223 0.634 0.314 1.306 0.265 1.976l-0.375 5.264"></path>
<path stroke-linejoin="round" stroke-linecap="round" stroke-miterlimit="4" stroke-width="1.5" d="M1.528 17.82c-0.53-3.446-0.795-5.168-0.144-6.697s2.097-2.572 4.988-4.662l2.16-1.561c3.595-2.6 5.393-3.9 7.47-3.9 2.072 0 3.87 1.3 7.466 3.9l2.16 1.561c2.89 2.090 4.335 3.135 4.988 4.662 0.65 1.529 0.387 3.25-0.143 6.696l-0.451 2.94c-0.75 4.884-1.127 7.326-2.879 8.784s-4.312 1.457-9.433 1.457h-3.42c-5.122 0-7.683 0-9.435-1.457s-2.127-3.9-2.877-8.785l-0.45-2.937z"></path>
</symbol>
  

  <symbol id="icon-setting" viewBox="0 0 33 32">
<path stroke-linejoin="round" stroke-linecap="round" stroke-miterlimit="4" stroke-width="1.5" d="M2.26 8.7l0.76-1.283c0.574-0.972 0.862-1.458 1.351-1.652 0.488-0.195 1.040-0.040 2.146 0.264l1.877 0.516c0.207 0.049 0.445 0.077 0.689 0.077 0.511 0 0.993-0.123 1.419-0.34l-0.018 0.008 0.518-0.29c0.545-0.343 0.966-0.84 1.205-1.431l0.007-0.020 0.514-1.497c0.339-0.99 0.508-1.485 0.91-1.767 0.401-0.285 0.937-0.285 2.004-0.285h1.716c1.067 0 1.601 0 2.004 0.285 0.402 0.282 0.57 0.777 0.908 1.767l0.514 1.497c0.236 0.597 0.66 1.105 1.214 1.45l0.518 0.293c0.409 0.209 0.892 0.331 1.404 0.331 0.243 0 0.48-0.028 0.707-0.080l-0.021 0.004 1.877-0.518c1.106-0.304 1.658-0.457 2.146-0.264 0.49 0.194 0.777 0.68 1.35 1.65l0.76 1.286c0.538 0.912 0.807 1.366 0.755 1.85-0.053 0.486-0.413 0.877-1.133 1.658l-1.586 1.73c-0.388 0.478-0.663 1.312-0.663 2.062s0.275 1.584 0.662 2.062l1.587 1.728c0.72 0.782 1.080 1.173 1.133 1.657 0.052 0.485-0.216 0.94-0.754 1.851l-0.76 1.286c-0.574 0.97-0.862 1.456-1.351 1.65s-1.040 0.042-2.146-0.264l-1.877-0.516c-0.206-0.048-0.443-0.076-0.686-0.076-0.512 0-0.995 0.122-1.422 0.339l0.018-0.008-0.517 0.29c-0.546 0.343-0.968 0.841-1.206 1.433l-0.007 0.020-0.513 1.495c-0.339 0.99-0.508 1.485-0.91 1.77-0.403 0.282-0.937 0.282-2.004 0.282h-1.716c-1.067 0-1.603 0-2.004-0.284s-0.571-0.778-0.908-1.768l-0.516-1.495c-0.245-0.612-0.666-1.111-1.2-1.446l-0.012-0.007-0.517-0.291c-0.409-0.209-0.892-0.331-1.404-0.331-0.244 0-0.481 0.028-0.709 0.080l0.021-0.004-1.877 0.516c-1.105 0.306-1.657 0.459-2.145 0.265-0.49-0.195-0.777-0.68-1.35-1.651l-0.76-1.286c-0.538-0.91-0.807-1.364-0.755-1.85s0.413-0.877 1.133-1.658l1.586-1.728c0.388-0.48 0.663-1.312 0.663-2.062s-0.275-1.584-0.661-2.063l-1.588-1.73c-0.72-0.779-1.080-1.17-1.133-1.656s0.216-0.94 0.754-1.851z"></path>
<path stroke-linejoin="round" stroke-linecap="round" stroke-miterlimit="4" stroke-width="1.5" d="M11.18 15.989c0 1.392 0.568 2.728 1.577 3.712 0.981 0.951 2.32 1.538 3.797 1.538 0.004 0 0.008 0 0.012 0h-0.001c0.003 0 0.006 0 0.010 0 1.477 0 2.816-0.587 3.798-1.539l-0.001 0.001c0.971-0.941 1.574-2.256 1.578-3.711v-0.001c-0.004-1.456-0.607-2.771-1.577-3.711l-0.001-0.001c-0.981-0.951-2.32-1.538-3.797-1.538-0.003 0-0.007 0-0.011 0h0.001c-0.003 0-0.007 0-0.011 0-1.477 0-2.816 0.587-3.798 1.539l0.001-0.001c-0.97 0.941-1.574 2.256-1.577 3.711v0.001z"></path>
</symbol>


<symbol id="icon-achievements" viewBox="0 0 33 32">
<path d="M15.534 30v-7.508c-1.839-0.135-3.439-0.802-4.799-1.998s-2.211-2.701-2.556-4.516c-2.116-0.249-3.919-1.116-5.41-2.602-1.489-1.485-2.236-3.277-2.236-5.376v-0.77c0-0.887 0.317-1.648 0.949-2.279 0.568-0.587 1.363-0.951 2.242-0.951 0.013 0 0.027 0 0.040 0l-0.002-0h4.078v-0.77c0-0.887 0.316-1.648 0.948-2.279 0.567-0.587 1.361-0.951 2.24-0.951 0.015 0 0.031 0 0.046 0l-0.002-0h10.924c0.889 0 1.649 0.317 2.281 0.949 0.586 0.565 0.95 1.358 0.95 2.235 0 0.016-0 0.032-0 0.048l0-0.002v0.77h4.079c0.887 0 1.648 0.317 2.279 0.949 0.633 0.634 0.948 1.394 0.948 2.281v0.77c0 2.097-0.746 3.889-2.236 5.376-1.491 1.487-3.294 2.353-5.41 2.601-0.345 1.815-1.196 3.322-2.556 4.517s-2.96 1.862-4.798 2v7.506h5.232c0.283 0 0.519 0.096 0.711 0.288s0.288 0.43 0.288 0.715c0 0.284-0.096 0.521-0.288 0.711-0.176 0.177-0.419 0.286-0.688 0.286-0.009 0-0.017-0-0.026-0l0.001 0h-12.461c-0.007 0-0.015 0-0.024 0-0.27 0-0.514-0.11-0.69-0.288l-0-0c-0.177-0.175-0.286-0.417-0.286-0.685 0-0.010 0-0.021 0.001-0.031l-0 0.002c-0-0.006-0-0.013-0-0.021 0-0.54 0.437-0.977 0.977-0.977 0.008 0 0.016 0 0.024 0l-0.001-0h5.23zM7.84 13.831v-7.831h-4.077c-0.358 0-0.653 0.115-0.884 0.346-0.23 0.231-0.346 0.527-0.346 0.886v0.768c0 1.498 0.508 2.799 1.524 3.906 1.014 1.106 2.276 1.749 3.783 1.925zM16.541 20.538c1.84 0 3.401-0.643 4.683-1.93 1.283-1.285 1.925-2.848 1.925-4.686v-10.69c0-0.359-0.117-0.655-0.349-0.885-0.229-0.231-0.524-0.347-0.884-0.347h-10.767c-0.359 0-0.654 0.115-0.883 0.346-0.233 0.231-0.349 0.527-0.349 0.886v10.692c0 1.837 0.644 3.399 1.933 4.686 1.29 1.285 2.853 1.927 4.693 1.927zM25.226 13.831c1.507-0.177 2.77-0.819 3.787-1.925 1.013-1.107 1.521-2.409 1.521-3.906v-0.77c0-0.358-0.115-0.653-0.346-0.884-0.231-0.23-0.526-0.346-0.885-0.346h-4.076v7.831z"></path>
</symbol>

	<symbol id="icon-close" viewBox="0 0 32 32">
	<path d="M27.9 31.5l-12.15-12.15-12.15 12.15-3.6-3.6 12.15-12.15-12.15-12.15 3.6-3.6 12.15 12.15 12.15-12.15 3.6 3.6-12.15 12.15 12.15 12.15-3.6 3.6z"></path>
	</symbol>
	<symbol id="icon-next-question" viewBox="0 0 16 32">
	<path d="M3.269 8.773l1.415-1.413 7.705 7.703c0.124 0.123 0.223 0.27 0.29 0.432s0.102 0.335 0.102 0.51-0.035 0.348-0.102 0.51c-0.067 0.162-0.166 0.308-0.29 0.432l-7.705 7.707-1.413-1.413 7.232-7.233-7.233-7.233z"></path>
	</symbol>
	<symbol id="icon-star-fill" viewBox="0 0 32 32">
	<path fill="#edb35c" style="fill: var(--color1, #edb35c)" d="M10.991 9.787l-8.507 1.233-0.151 0.031c-0.228 0.060-0.436 0.181-0.603 0.348s-0.286 0.376-0.345 0.604c-0.060 0.228-0.058 0.468 0.006 0.696s0.186 0.434 0.355 0.598l6.163 5.999-1.453 8.473-0.017 0.147c-0.014 0.236 0.035 0.471 0.142 0.682s0.268 0.389 0.466 0.517c0.199 0.128 0.428 0.201 0.664 0.211s0.471-0.042 0.68-0.152l7.608-4 7.591 4 0.133 0.061c0.22 0.087 0.459 0.113 0.693 0.077s0.454-0.134 0.637-0.283c0.184-0.149 0.324-0.345 0.407-0.566s0.106-0.461 0.066-0.694l-1.455-8.473 6.165-6 0.104-0.113c0.149-0.183 0.246-0.402 0.282-0.635s0.010-0.471-0.076-0.691-0.228-0.412-0.413-0.559c-0.185-0.147-0.405-0.242-0.638-0.275l-8.507-1.235-3.803-7.707c-0.11-0.223-0.28-0.411-0.492-0.543s-0.455-0.201-0.704-0.201-0.493 0.070-0.704 0.201c-0.211 0.131-0.382 0.32-0.492 0.543l-3.804 7.707z"></path>
	</symbol>
	<symbol id="icon-settings-check" viewBox="0 0 32 32">
	<path fill="#fcfafa" style="fill: var(--color1, #fcfafa)" d="M16 22c-1.187 0-2.347-0.352-3.333-1.011s-1.756-1.596-2.21-2.693c-0.454-1.096-0.573-2.303-0.341-3.467s0.803-2.233 1.642-3.072c0.839-0.839 1.908-1.411 3.072-1.642s2.37-0.113 3.467 0.341c1.096 0.454 2.033 1.223 2.693 2.21s1.011 2.147 1.011 3.333c0.009 0.79-0.141 1.574-0.439 2.306s-0.74 1.397-1.299 1.955c-0.559 0.559-1.224 1.001-1.955 1.299s-1.516 0.448-2.306 0.439zM16 12c-0.529-0.012-1.054 0.083-1.545 0.279s-0.937 0.491-1.311 0.865c-0.374 0.374-0.668 0.82-0.865 1.311s-0.292 1.017-0.279 1.545c-0.012 0.529 0.083 1.054 0.279 1.545s0.491 0.937 0.865 1.311c0.374 0.374 0.82 0.668 1.311 0.865s1.017 0.292 1.545 0.279c0.529 0.012 1.054-0.083 1.545-0.279s0.937-0.491 1.311-0.865 0.668-0.82 0.865-1.311c0.197-0.491 0.292-1.017 0.279-1.545 0.012-0.529-0.083-1.054-0.279-1.545s-0.491-0.937-0.865-1.311c-0.374-0.374-0.82-0.668-1.311-0.865s-1.017-0.292-1.545-0.279z"></path>
	<path fill="#fcfafa" style="fill: var(--color1, #fcfafa)" d="M29.305 11.044l-2.36-4.088c-0.231-0.401-0.594-0.709-1.027-0.872s-0.909-0.171-1.347-0.022l-2.434 0.823c-0.419-0.283-0.858-0.536-1.312-0.758l-0.503-2.519c-0.091-0.454-0.336-0.862-0.693-1.155s-0.806-0.453-1.269-0.453h-4.72c-0.463-0-0.911 0.16-1.269 0.453s-0.603 0.701-0.693 1.155l-0.503 2.519c-0.459 0.22-0.903 0.472-1.327 0.753l-2.42-0.818c-0.438-0.148-0.913-0.14-1.346 0.023s-0.795 0.471-1.026 0.871l-2.36 4.088c-0.231 0.4-0.317 0.869-0.242 1.325s0.306 0.873 0.653 1.178l1.931 1.696c-0.017 0.252-0.038 0.502-0.038 0.757 0 0.258 0.009 0.513 0.028 0.766l-1.92 1.688c-0.347 0.305-0.578 0.721-0.654 1.177s0.010 0.924 0.241 1.325l2.36 4.088c0.231 0.401 0.594 0.709 1.027 0.872s0.909 0.171 1.347 0.023l2.434-0.824c0.419 0.283 0.858 0.536 1.312 0.759l0.503 2.518c0.091 0.454 0.336 0.862 0.693 1.155s0.806 0.453 1.269 0.453h4.36v-2h-4.36l-0.71-3.55c-0.982-0.365-1.894-0.897-2.695-1.572l-3.447 1.166-2.36-4.088 2.725-2.395c-0.187-1.034-0.189-2.093-0.007-3.128l-2.718-2.389 2.36-4.088 3.427 1.16c0.806-0.677 1.725-1.207 2.715-1.566l0.71-3.55h4.72l0.71 3.55c0.982 0.365 1.894 0.897 2.695 1.572l3.447-1.166 2.36 4.088-2.798 2.452 1.318 1.504 2.8-2.454c0.347-0.305 0.578-0.721 0.654-1.177s-0.010-0.924-0.241-1.325z"></path>
	<path fill="#fcfafa" style="fill: var(--color1, #fcfafa)" d="M23 26.18l-2.59-2.59-1.41 1.41 4 4 7-7-1.41-1.41-5.59 5.59z"></path>
	</symbol>
	<symbol id="icon-line" viewBox="0 0 1 32">
	<path fill="none" stroke="#fcfafa" style="stroke: var(--color1, #fcfafa)" stroke-linejoin="miter" stroke-linecap="butt" stroke-miterlimit="4" stroke-width="1.3333" d="M0.667 0v32"></path>
	</symbol>

<symbol id="icon-password-see" viewBox="0 0 64 32">
<path d="M60.41 24.454c-0.323 0.18-0.709 0.286-1.12 0.286-0.834 0-1.565-0.437-1.979-1.094l-0.006-0.010-5.396-9.056c-2.945 1.936-6.357 3.493-10.001 4.486l-0.25 0.058 1.67 9.606c0.020 0.109 0.032 0.235 0.032 0.363 0 0.478-0.16 0.918-0.428 1.271l0.004-0.005c-0.43 0.557-1.098 0.911-1.848 0.911-0.556 0-1.066-0.195-1.466-0.519l0.004 0.003c-0.398-0.322-0.678-0.777-0.772-1.296l-0.002-0.013-1.638-9.428c-1.565 0.221-3.373 0.346-5.21 0.346s-3.645-0.126-5.415-0.37l0.205 0.023-1.638 9.431c-0.096 0.532-0.376 0.987-0.77 1.306l-0.004 0.003c-0.396 0.321-0.905 0.515-1.46 0.515-0.137 0-0.271-0.012-0.401-0.034l0.014 0.002c-0.605-0.1-1.122-0.421-1.474-0.876l-0.004-0.005c-0.262-0.351-0.42-0.794-0.42-1.273 0-0.126 0.011-0.249 0.032-0.369l-0.002 0.013 1.676-9.606c-3.893-1.054-7.303-2.612-10.381-4.633l0.135 0.083-5.382 9.065c-0.416 0.665-1.145 1.101-1.975 1.101-0.105 0-0.208-0.007-0.309-0.020l0.012 0.001c-0.612-0.081-1.141-0.387-1.51-0.831l-0.003-0.004c-0.295-0.366-0.474-0.837-0.474-1.349 0-0.096 0.006-0.19 0.018-0.282l-0.001 0.011c0.042-0.303 0.141-0.576 0.288-0.818l-0.005 0.010 5.681-9.548c-2.008-1.672-3.802-3.458-5.428-5.39l-0.053-0.065c-0.359-0.385-0.579-0.904-0.579-1.474 0-0.057 0.002-0.113 0.006-0.169l-0 0.007c0.053-0.626 0.37-1.168 0.838-1.52l0.005-0.004c0.386-0.301 0.877-0.482 1.411-0.482 0.113 0 0.224 0.008 0.332 0.024l-0.012-0.001c0.629 0.088 1.168 0.415 1.532 0.885l0.004 0.005c4.719 5.603 12.969 12.273 25.507 12.273s20.791-6.679 25.507-12.273c0.43-0.565 1.104-0.927 1.861-0.927 0.856 0 1.605 0.461 2.010 1.148l0.006 0.011c0.162 0.293 0.258 0.642 0.258 1.014 0 0.577-0.231 1.1-0.605 1.483l0-0c-1.679 1.997-3.473 3.782-5.412 5.399l-0.069 0.056 5.681 9.542c0.199 0.317 0.317 0.703 0.317 1.117 0 0.816-0.46 1.524-1.135 1.88l-0.012 0.006z"></path>
</symbol>

<symbol id="icon-password-hide" viewBox="0 0 43 32">
<path stroke-linejoin="round" stroke-linecap="round" stroke-miterlimit="4" stroke-width="1.7778" d="M6.61 14.16l-4.75-4.756M15.65 8.327l-1.936-6.265M36.057 14.16l4.75-4.754M27.017 8.325l1.936-6.263M21.333 7.493c-12.761 0-18.117 11.477-18.117 11.716 0 0.236 5.356 11.71 18.117 11.71s18.119-11.474 18.119-11.712c0-0.236-5.358-11.716-18.119-11.716z"></path>
<path stroke-linejoin="round" stroke-linecap="round" stroke-miterlimit="4" stroke-width="1.7778" d="M16.171 18.025c-0.104 0.391-0.163 0.841-0.163 1.304 0 2.926 2.372 5.298 5.298 5.298 2.551 0 4.68-1.802 5.185-4.203l0.006-0.035c0.085-0.355 0.134-0.763 0.134-1.182 0-2.925-2.371-5.296-5.296-5.296-2.506 0-4.605 1.74-5.156 4.078l-0.007 0.036z"></path>
</symbol>

<symbol id="icon-password-star" viewBox="0 0 35 32">
<path d="M2.522 22.266c-0.56 0.305-0.934 0.89-0.934 1.562 0 0.979 0.794 1.773 1.773 1.773 0.004 0 0.009 0 0.013-0h-0.001c0.333-0.012 0.64-0.109 0.904-0.27l-0.008 0.005 11.091-6.093c0.046-0.028 0.101-0.045 0.16-0.045s0.114 0.017 0.161 0.046l-0.001-0.001c0.102 0.059 0.17 0.167 0.173 0.291v10.666c0 0.98 0.794 1.774 1.774 1.774s1.774-0.794 1.774-1.774v-10.666c0.003-0.184 0.15-0.332 0.332-0.339l0.001-0c0.058 0 0.112 0.016 0.16 0.045l11.040 6.096c0.248 0.14 0.544 0.222 0.859 0.222 0.98 0 1.774-0.794 1.774-1.774 0-0.664-0.365-1.243-0.906-1.547l-0.009-0.005-10.861-5.981c-0.098-0.049-0.169-0.139-0.192-0.247l-0-0.002c0-0.001 0-0.002 0-0.003 0-0.122 0.063-0.229 0.159-0.291l0.001-0.001 10.922-5.971c0.416-0.33 0.681-0.835 0.681-1.403 0-0.986-0.799-1.786-1.786-1.786-0.231 0-0.452 0.044-0.654 0.124l0.012-0.004-11.066 6.054c-0.046 0.028-0.101 0.045-0.16 0.045s-0.114-0.017-0.161-0.046l0.001 0.001c-0.105-0.050-0.176-0.156-0.176-0.278 0-0 0-0 0-0.001v0-10.669c0-0.979-0.794-1.773-1.773-1.773s-1.773 0.794-1.773 1.773v0 10.666c0 0.002 0 0.003 0 0.005 0 0.121-0.070 0.225-0.171 0.275l-0.002 0.001c-0.046 0.028-0.101 0.045-0.16 0.045s-0.114-0.017-0.161-0.046l0.001 0.001-11.066-6.054c-0.191-0.076-0.411-0.12-0.642-0.12-0.986 0-1.786 0.799-1.786 1.786 0 0.567 0.265 1.073 0.677 1.4l0.004 0.003 10.867 5.971c0.118 0.050 0.202 0.162 0.211 0.293l0 0.001c-0.001 0.122-0.064 0.23-0.159 0.294l-0.001 0.001-10.918 5.971z"></path>
</symbol>

<symbol id="icon-arrow-back" viewBox="0 0 33 32">
<path d="M7.571 15h20c0.552 0 1 0.448 1 1s-0.448 1-1 1v0h-20c-0.552 0-1-0.448-1-1s0.448-1 1-1v0z"></path>
<path d="M7.985 16l8.295 8.293c0.181 0.181 0.293 0.432 0.293 0.708 0 0.553-0.448 1.002-1.002 1.002-0.277 0-0.527-0.112-0.709-0.294l-8.998-9c-0.182-0.181-0.294-0.432-0.294-0.709s0.113-0.527 0.294-0.709l9-8.999c0.181-0.181 0.431-0.293 0.708-0.293 0.553 0 1.001 0.448 1.001 1.001 0 0.277-0.112 0.527-0.293 0.708l-8.296 8.291z"></path>
</symbol>


<symbol id="icon-fire" viewBox="0 0 27 32">
<path fill="#f97316" style="fill: var(--color1, #f97316)" d="M9.558 0.964c0.216-0.202 0.508-0.325 0.828-0.325 0.323 0 0.617 0.126 0.835 0.332l-0.001-0.001c1.657 1.557 3.183 3.203 4.589 4.948l0.072 0.093c0.659-0.864 1.409-1.806 2.22-2.574 0.218-0.206 0.513-0.333 0.838-0.333 0.327 0 0.624 0.129 0.843 0.339l-0-0c2.076 1.98 3.834 4.595 5.069 7.081 1.219 2.447 2.029 4.95 2.029 6.714 0 7.656-5.988 14.124-13.44 14.124-7.537 0-13.44-6.474-13.44-14.13 0-2.304 1.068-5.117 2.724-7.901 1.674-2.826 4.038-5.773 6.835-8.365zM13.542 25.6c1.518 0 2.862-0.42 4.128-1.26 2.525-1.764 3.204-5.292 1.686-8.064-0.27-0.54-0.96-0.576-1.35-0.12l-1.512 1.757c-0.177 0.205-0.438 0.335-0.729 0.335-0.304 0-0.576-0.141-0.752-0.362l-0.002-0.002c-7.607-9.907-8.842-11.466-10.078-13.023l6.31 8.236c-0.174-0.222-0.442-0.363-0.743-0.363-0.298 0-0.564 0.138-0.736 0.355l-0.001 0.002c-2.029 2.55-3.049 4.157-3.049 5.965 0.006 4.108 3.043 6.545 6.829 6.545z"></path>
</symbol>


<symbol id="icon-user-loggedin" viewBox="0 0 32 32">
<path d="M11.995 0.723c0.536-0.45 1.232-0.723 1.993-0.723 0.005 0 0.009 0 0.014 0h-0.001c0.003 0 0.008-0 0.012-0 0.761 0 1.458 0.273 1.998 0.727l-0.005-0.004 10.999 9.305c0.314 0.265 0.564 0.589 0.735 0.951s0.26 0.752 0.26 1.148v1.8c-0.578-0.32-1.251-0.557-1.964-0.673l-0.036-0.005v-1.123c-0-0.139-0.032-0.27-0.089-0.387l0.002 0.005c-0.061-0.125-0.143-0.23-0.244-0.315l-0.001-0.001-11-9.305c-0.185-0.155-0.422-0.24-0.669-0.24s-0.485 0.086-0.667 0.24l-11.001 9.305c-0.102 0.086-0.184 0.191-0.243 0.311l-0.002 0.006c-0.054 0.112-0.086 0.243-0.087 0.382v13.284c0.001 0.263 0.114 0.499 0.292 0.665l0.001 0.001c0.187 0.176 0.442 0.275 0.707 0.275h5.001c0.265 0 0.519-0.099 0.707-0.275 0.179-0.167 0.291-0.403 0.293-0.666v-6.589c0.005-0.789 0.342-1.498 0.878-1.995l0.002-0.002c0.551-0.513 1.293-0.827 2.107-0.827 0.005 0 0.010 0 0.014 0h3.999c0.795 0 1.559 0.298 2.121 0.827 0.538 0.499 0.874 1.208 0.879 1.996v4.156c-0.803 0.332-1.476 0.841-1.992 1.481l-0.007 0.009v-5.648c-0.001-0.263-0.113-0.499-0.292-0.665l-0.001-0.001c-0.184-0.171-0.431-0.276-0.703-0.276-0.002 0-0.003 0-0.005 0h-4c-0.265 0-0.519 0.1-0.707 0.276-0.179 0.166-0.291 0.403-0.293 0.665v6.59c0 0.371-0.078 0.739-0.229 1.082-0.161 0.358-0.38 0.663-0.649 0.916l-0.001 0.001c-0.273 0.257-0.597 0.464-0.953 0.605l-0.020 0.007c-0.34 0.136-0.734 0.215-1.146 0.215-0.001 0-0.002 0-0.003 0h-5c-0.795 0-1.559-0.297-2.121-0.826-0.538-0.499-0.874-1.208-0.879-1.996v-13.283c0-0.8 0.36-1.563 0.997-2.099l10.999-9.306zM29.001 18.821c-0.006 1.052-0.455 1.997-1.17 2.66l-0.002 0.002c-0.735 0.684-1.724 1.104-2.81 1.104-0.006 0-0.012 0-0.019-0h0.001c-0.006 0-0.012 0-0.019 0-1.087 0-2.075-0.42-2.813-1.106l0.003 0.002c-0.717-0.666-1.165-1.611-1.171-2.661v-0.001c0.006-1.051 0.455-1.997 1.169-2.66l0.002-0.002c0.735-0.683 1.723-1.103 2.809-1.103 0.007 0 0.014 0 0.021 0h-0.001c1.061 0 2.078 0.396 2.828 1.103 0.717 0.665 1.166 1.611 1.172 2.661v0.001zM32 27.293c0 2.344-2 4.707-7 4.707s-7.001-2.353-7.001-4.707c0.005-0.789 0.342-1.498 0.878-1.995l0.002-0.002c0.551-0.513 1.293-0.827 2.108-0.827 0.005 0 0.010 0 0.014 0h7.999c0.795 0 1.559 0.297 2.121 0.827 0.538 0.499 0.874 1.208 0.879 1.996v0.001z"></path>
</symbol>

<symbol id="icon-progress-bar" viewBox="0 0 11 32">
<path fill="#f0f0f0" 
style="fill: var(--color1, #f0f0f0); stroke: var(--color2, #5e909e)" 
stroke="#5e909e" 
stroke-linejoin="miter" 
stroke-linecap="butt" 
stroke-miterlimit="4" 
stroke-width="0.1988" 
d="M9.975 31.086c-0.686 0.861-1.947 1.006-2.743 0.246-1.738-1.662-3.214-3.579-4.372-5.694l-0.061-0.122c-1.413-2.572-2.373-5.587-2.687-8.791l-0.008-0.096c-0.067-0.665-0.105-1.437-0.105-2.218 0-2.507 0.394-4.922 1.122-7.186l-0.046 0.166c0.797-2.5 1.905-4.674 3.305-6.624l-0.048 0.070c0.638-0.897 1.904-0.993 2.741-0.277l0.59 0.505c0.832 0.712 0.922 1.957 0.306 2.862-0.97 1.407-1.775 3.030-2.333 4.764l-0.037 0.132c-0.543 1.671-0.857 3.593-0.857 5.589 0 0.622 0.030 1.236 0.090 1.843l-0.006-0.077c0.256 2.628 1.020 5.028 2.193 7.172l-0.049-0.097c0.908 1.668 1.988 3.102 3.247 4.356l0.001 0.001c0.776 0.773 0.923 2.012 0.241 2.869l-0.486 0.61z"></path>
</symbol>

  </defs>
</svg>
