<?xml version="1.0" encoding="UTF-8"?>
<svg fill="none" viewBox="0 0 40 40" xmlns="http://www.w3.org/2000/svg">
<path d="m20.833 31.666v-6.2567c1.5322-0.1133 2.865-0.6683 3.9983-1.665 1.1334-0.9966 1.8434-2.2511 2.13-3.7633 1.7634-0.2078 3.2662-0.9306 4.5084-2.1683 1.2422-1.2378 1.8633-2.7311 1.8633-4.48v-0.6417c0-0.74-0.2639-1.3733-0.7917-1.9-0.5277-0.5267-1.1611-0.7906-1.9-0.79166h-3.3983v-0.64167c0-0.74-0.2633-1.3733-0.79-1.9-0.5278-0.52778-1.1622-0.79167-1.9033-0.79167h-9.1034c-0.74 0-1.3733 0.26389-1.9 0.79167-0.5277 0.52667-0.7916 1.16-0.7916 1.9v0.64167h-3.3984c-0.74 0-1.3733 0.26386-1.9 0.79166-0.52667 0.5278-0.79 1.1611-0.79 1.9v0.6417c0 1.7477 0.62111 3.2411 1.8633 4.48s2.745 1.9611 4.5083 2.1666c0.2867 1.5134 0.9967 2.7684 2.13 3.765 1.1333 0.9967 2.4661 1.5523 3.9983 1.6667v6.255h-4.36c-0.2355 0-0.4333 0.08-0.5933 0.24s-0.24 0.3583-0.24 0.595 0.08 0.4344 0.24 0.5933 0.3578 0.2384 0.5933 0.2384h10.385c0.2367 0 0.435-0.08 0.595-0.24s0.2395-0.3584 0.2384-0.595c-0.0011-0.2367-0.0806-0.4345-0.2384-0.5934-0.1577-0.1589-0.3561-0.2383-0.595-0.2383h-4.3583zm6.41-13.473v-6.5267h3.3983c0.2989 0 0.5445 0.0961 0.7367 0.2883 0.1922 0.1923 0.2883 0.4384 0.2883 0.7384v0.64c0 1.2477-0.4233 2.3327-1.27 3.255-0.8455 0.9222-1.8966 1.4572-3.1533 1.605zm-7.25 5.5883c-1.5333 0-2.8344-0.5361-3.9033-1.6083-1.0689-1.0711-1.6034-2.3728-1.6034-3.905v-8.9084c0-0.3 0.0967-0.54611 0.29-0.73834 0.1912-0.19222 0.4367-0.28833 0.7367-0.28833h8.9733c0.3 0 0.5456 0.09611 0.7367 0.28833 0.1933 0.19223 0.29 0.43834 0.29 0.73834v8.91c0 1.5311-0.5367 2.8328-1.61 3.905-1.0744 1.0711-2.3783 1.6067-3.9117 1.6067m-7.235-5.5883c-1.2566-0.1478-2.3083-0.6828-3.155-1.605-0.84556-0.9223-1.2683-2.0073-1.2683-3.255v-0.6417c0-0.2989 0.09612-0.5444 0.28834-0.7367 0.19222-0.1922 0.43777-0.2883 0.73666-0.2883h3.3983v6.5267z" fill="#EDB35C"/>
</svg>
