<?xml version="1.0" encoding="UTF-8"?>
<svg fill="none" viewBox="0 0 42 42" xmlns="http://www.w3.org/2000/svg">
<path d="m13.125 15.75v5.25m-2.625-2.625h5.25m2.0388-10.01 0.8785 0.6195c0.6823 0.48211 1.4972 0.74097 2.3327 0.74097s1.6504-0.25886 2.3328-0.74097l0.8785-0.62125c1.2536-0.88718 2.7517-1.3635 4.2875-1.3632h1.071c0.7087 0 1.4227 0.04375 2.0895 0.28 4.1702 1.4805 7.0367 6.8862 6.8302 19.15-0.042 2.471-0.6195 5.201-2.849 6.2668-0.7605 0.3657-1.5939 0.5547-2.4377 0.553-0.9485 0.0155-1.8803-0.2506-2.6775-0.7648-1.6013-1.0482-2.772-2.7999-4.4695-3.6784-1.0218-0.5304-2.1563-0.8071-3.3075-0.8068h-3.4983c-1.1515 0-2.2855 0.2765-3.3075 0.805-1.6975 0.882-2.87 2.632-4.4677 3.6802-0.7972 0.5142-1.729 0.7803-2.6775 0.7648-0.84387 0.0017-1.6772-0.1873-2.4378-0.553-2.2295-1.0658-2.807-3.7975-2.849-6.2668-0.20825-12.264 2.66-17.67 6.8303-19.15 0.6667-0.23625 1.3842-0.28 2.0895-0.28h1.071c1.5365 0 3.0345 0.476 4.2875 1.365z" stroke="#fff" stroke-linecap="round" stroke-width="1.5"/>
<path d="m33.25 17.938c0 0.3481-0.1383 0.6819-0.3844 0.9281-0.2462 0.2461-0.58 0.3844-0.9281 0.3844s-0.6819-0.1383-0.9281-0.3844c-0.2461-0.2462-0.3844-0.58-0.3844-0.9281s0.1383-0.6819 0.3844-0.9281c0.2462-0.2461 0.58-0.3844 0.9281-0.3844s0.6819 0.1383 0.9281 0.3844c0.2461 0.2462 0.3844 0.58 0.3844 0.9281zm-5.25 0c0 0.3481-0.1383 0.6819-0.3844 0.9281-0.2462 0.2461-0.58 0.3844-0.9281 0.3844s-0.6819-0.1383-0.9281-0.3844c-0.2461-0.2462-0.3844-0.58-0.3844-0.9281s0.1383-0.6819 0.3844-0.9281c0.2462-0.2461 0.58-0.3844 0.9281-0.3844s0.6819 0.1383 0.9281 0.3844c0.2461 0.2462 0.3844 0.58 0.3844 0.9281zm1.3125-3.9375c0.3481 0 0.6819 0.1383 0.9281 0.3844 0.2461 0.2462 0.3844 0.58 0.3844 0.9281s-0.1383 0.6819-0.3844 0.9281c-0.2462 0.2461-0.58 0.3844-0.9281 0.3844s-0.6819-0.1383-0.9281-0.3844c-0.2461-0.2462-0.3844-0.58-0.3844-0.9281s0.1383-0.6819 0.3844-0.9281c0.2462-0.2461 0.58-0.3844 0.9281-0.3844zm0 5.25c0.1724 0 0.343 0.0339 0.5023 0.0999 0.1592 0.066 0.3039 0.1626 0.4258 0.2845s0.2185 0.2666 0.2845 0.4258c0.066 0.1593 0.0999 0.3299 0.0999 0.5023s-0.0339 0.343-0.0999 0.5023c-0.066 0.1592-0.1626 0.3039-0.2845 0.4258s-0.2666 0.2185-0.4258 0.2845c-0.1593 0.066-0.3299 0.0999-0.5023 0.0999-0.3481 0-0.6819-0.1383-0.9281-0.3844-0.2461-0.2462-0.3844-0.58-0.3844-0.9281s0.1383-0.6819 0.3844-0.9281c0.2462-0.2461 0.58-0.3844 0.9281-0.3844z" fill="#fff"/>
</svg>
