<svg xmlns="http://www.w3.org/2000/svg" width="1024" height="1024">
  <path fill="none" stroke="#000" stroke-linecap="round" stroke-linejoin="round" stroke-width="36.571" d="M618.667 277.333 405.334 426.666m213.333 320.001L405.334 597.334M405.333 512a106.666 106.666 0 0 1-182.092 75.425 106.666 106.666 0 0 1 75.425-182.092A106.666 106.666 0 0 1 405.333 512zM832 789.333a106.666 106.666 0 0 1-182.092 75.425 106.666 106.666 0 0 1 75.425-182.092A106.666 106.666 0 0 1 832 789.333zm0-554.666a106.666 106.666 0 0 1-182.092 75.425 106.666 106.666 0 1 1 150.85-150.85A106.664 106.664 0 0 1 832 234.667z"/>
</svg>
