<?xml version="1.0" encoding="UTF-8"?>
<svg fill="none" viewBox="0 0 42 42" xmlns="http://www.w3.org/2000/svg">
<path d="m36.116 24.738-0.0875-0.8697-0.0262 0.0017-0.0298 0.0053 0.1435 0.8627zm0 0 0.0875 0.8715 0.0298-0.0035 0.028-0.0052-0.1453-0.8628zm-7.07 9.5935 0.5548-0.6772-0.0088-0.0053-0.546 0.6825zm0 0-0.5547 0.6773 0.0087 7e-3 0.546-0.6843zm-16.093 0-0.5547-0.6755-0.0123 0.0105-0.014 0.0123 0.581 0.6527zm0 0 0.5548 0.679 0.014-0.0122 0.0122-0.0105-0.581-0.6563zm-7.0718-17.07v-0.875h-0.042l-0.04375 0.0035 0.08575 0.8715zm0 0v0.875h0.04375l0.04375-0.0052-0.0875-0.8698zm19.724-11.468c-0.026-0.31733-0.0627-0.63368-0.1102-0.9485-0.0394-0.27876-0.1233-0.54938-0.2485-0.8015l-1.5558 0.80325c0.0175 0.035 0.0473 0.105 0.077 0.287 0.0333 0.1925 0.0578 0.44275 0.098 0.833l1.7395-0.17325zm0.343 2.1052c-0.021-0.02625-0.084-0.133-0.1522-0.5075-0.0819-0.53019-0.1432-1.0631-0.1873-1.5978l-1.743 0.17325c0.07 0.70175 0.1278 1.2828 0.2083 1.7342 0.0787 0.441 0.2012 0.89075 0.483 1.26l1.3912-1.0622zm0.812 0.336c-0.153 0.02058-0.3086 3.4e-4 -0.4512-0.05867s-0.2671-0.15469-0.3608-0.27733l-1.393 1.0605c0.281 0.36853 0.6546 0.65608 1.0828 0.83343 0.4282 0.17736 0.8957 0.23817 1.355 0.17632l-0.2328-1.7342zm1.729-1.2478c-0.5687 0.46725-0.9572 0.784-1.2635 0.99575-0.3132 0.217-0.434 0.24675-0.4655 0.252l0.2328 1.7342c0.4585-0.06125 0.8627-0.29225 1.232-0.5495 0.3762-0.2625 0.826-0.63 1.3737-1.078l-1.1095-1.3545zm1.491-0.98175c-0.28 0.08925-0.5162 0.231-0.7402 0.39025-0.217 0.154-0.4638 0.357-0.7508 0.5915l1.1095 1.3545c0.3028-0.2485 0.4988-0.40775 0.6563-0.51975 0.0786-0.06228 0.1659-0.11297 0.259-0.1505l-0.5338-1.666zm1.8428 0.091c-0.5831-0.25231-1.2378-0.28464-1.8428-0.091l0.5338 1.666c0.2012-0.06374 0.4188-0.05255 0.6125 0.0315l0.6965-1.6065zm1.386 1.127c-0.2625-0.2625-0.4883-0.49-0.6878-0.665-0.2065-0.19036-0.4423-0.34635-0.6982-0.462l-0.6965 1.6065c0.0367 0.01575 0.1032 0.0525 0.2432 0.175 0.1453 0.126 0.3238 0.3045 0.602 0.58275l1.2373-1.2372zm1.5627 1.5628-1.5627-1.5628-1.2373 1.2372 1.5628 1.5628 1.2372-1.2372zm1.127 1.386c-0.1162-0.25613-0.2728-0.49189-0.4637-0.6983-0.175-0.1995-0.4025-0.42525-0.6633-0.68775l-1.2372 1.2372c0.2782 0.2783 0.455 0.4568 0.5845 0.602 0.1225 0.14 0.1575 0.2065 0.1732 0.2433l1.6065-0.6965zm0.091 1.8427c0.1936-0.605 0.1613-1.2597-0.091-1.8427l-1.6065 0.6965c0.0835 0.1938 0.094 0.4114 0.0298 0.6125l1.6677 0.5337zm-0.9817 1.491c0.2345-0.287 0.4375-0.5337 0.5915-0.7507 0.1575-0.224 0.301-0.4603 0.3902-0.7403l-1.6677-0.5337c-0.037 0.0929-0.0871 0.1801-0.1488 0.259-0.1667 0.2238-0.34 0.4427-0.5197 0.6562l1.3545 1.1095zm-1.2478 1.729c0.0053-0.0315 0.035-0.1522 0.252-0.4655 0.2118-0.3062 0.5285-0.6947 0.9958-1.2635l-1.3545-1.1095c-0.448 0.5478-0.8173 0.9975-1.078 1.3738-0.2573 0.3675-0.4883 0.7735-0.5495 1.232l1.7342 0.2327zm0.336 0.812c-0.1226-0.0937-0.2183-0.2182-0.2773-0.3608s-0.0793-0.2982-0.0587-0.4512l-1.7342-0.2327c-0.0616 0.459-6e-4 0.9261 0.1767 1.3539 0.1774 0.4279 0.4648 0.8012 0.833 1.0821l1.0605-1.3913zm2.1053 0.3413c-0.7333-0.0735-1.2303-0.1225-1.5978-0.189-0.3745-0.0683-0.4812-0.1313-0.5075-0.1523l-1.0605 1.3913c0.3675 0.28 0.8173 0.4025 1.26 0.483 0.4498 0.0805 1.029 0.14 1.7325 0.21l0.1733-1.743zm1.75 0.3605c-0.2522-0.1253-0.5228-0.2092-0.8015-0.2485-0.2625-0.0438-0.581-0.0753-0.9485-0.112l-0.175 1.7412c0.392 0.0403 0.6422 0.0648 0.8347 0.098 0.0988 0.0119 0.1955 0.0379 0.287 0.077l0.8033-1.5557zm1.2372 1.3667c-0.2336-0.5902-0.6732-1.0757-1.2372-1.3667l-0.8033 1.5557c0.1882 0.0968 0.3349 0.2584 0.413 0.455l1.6275-0.644zm0.1838 1.7763c0-0.3693 0-0.6895-0.0175-0.9555-0.0112-0.2808-0.0673-0.5579-0.1663-0.8208l-1.6275 0.644c0.014 0.0368 0.035 0.1103 0.0472 0.294 0.0131 0.2798 0.0178 0.5599 0.0141 0.84l1.75-0.0017zm0 2.212v-2.212h-1.75v2.212h1.75zm-0.1838 1.7745c0.1085-0.273 0.1488-0.546 0.1663-0.8208 0.0175-0.2642 0.0175-0.5845 0.0175-0.9537h-1.75c0 0.392 0 0.644-0.0141 0.8382-0.0017 0.0997-0.0176 0.1987-0.0472 0.294l1.6275 0.6423zm-1.2372 1.3685c0.5644-0.2915 1.0039-0.7777 1.2372-1.3685l-1.6275-0.6423c-0.0781 0.1966-0.2248 0.3583-0.413 0.455l0.8033 1.5558zm-1.75 0.3605c0.3675-0.0368 0.6877-0.07 0.9485-0.1138 0.2712-0.0437 0.539-0.112 0.7997-0.245l-0.8015-1.5575c-0.0915 0.0391-0.1882 0.0651-0.287 0.077-0.1925 0.0333-0.4427 0.0578-0.833 0.098l0.1733 1.7413zm-2.1035 0.3412c0.0262-0.021 0.133-0.0857 0.5075-0.1522 0.3675-0.0665 0.8645-0.1173 1.596-0.189l-0.1733-1.7413c-0.7017 0.07-1.2827 0.126-1.7342 0.2083-0.441 0.0787-0.889 0.2012-1.2583 0.4812l1.0623 1.393zm-0.3378 0.812c-0.0204-0.1531 1e-4 -0.3089 0.0595-0.4515 0.0593-0.1426 0.1553-0.267 0.2783-0.3605l-1.0623-1.393c-0.3685 0.281-0.6561 0.6546-0.8334 1.0828-0.1774 0.4282-0.2382 0.8957-0.1763 1.355l1.7342-0.2328zm1.2478 1.729c-0.3468-0.4093-0.6789-0.8307-0.9958-1.2635-0.217-0.3115-0.2467-0.434-0.252-0.4655l-1.7325 0.2345c0.0613 0.4585 0.2923 0.861 0.5478 1.2303 0.2625 0.3745 0.63 0.826 1.078 1.372l1.3545-1.1078zm0.9817 1.491c-0.0895-0.2666-0.2213-0.5172-0.3902-0.742-0.1896-0.2556-0.3869-0.5054-0.5915-0.749l-1.3545 1.1078c0.2485 0.3045 0.4077 0.4987 0.5197 0.658 0.0615 0.0782 0.1116 0.1648 0.1488 0.2572l1.6677-0.532zm-0.091 1.8428c0.2523-0.5831 0.2846-1.2378 0.091-1.8428l-1.6677 0.532c0.0647 0.2016 0.0541 0.4199-0.0298 0.6143l1.6065 0.6965zm-1.1252 1.3842c0.2607-0.2607 0.4865-0.4865 0.6615-0.686 0.182-0.2082 0.3465-0.427 0.4637-0.6982l-1.6065-0.6965c-0.0465 0.0884-0.1055 0.1697-0.175 0.2415-0.1882 0.2064-0.3825 0.4071-0.5827 0.602l1.239 1.2372zm-1.5645 1.5645 1.5645-1.5645-1.239-1.2372-1.5628 1.5645 1.2373 1.2372zm-1.386 1.1253c0.2695-0.1173 0.49-0.28 0.6982-0.462 0.1995-0.175 0.4253-0.4025 0.6878-0.665l-1.2373-1.2355c-0.2782 0.2782-0.4567 0.455-0.602 0.5827-0.0723 0.0697-0.1542 0.1286-0.2432 0.175l0.6965 1.6048zm-1.8428 0.0927c0.6052 0.1931 1.26 0.1601 1.8428-0.0927l-0.6965-1.6048c-0.1939 0.0835-0.4115 0.094-0.6125 0.0298l-0.5338 1.6677zm-1.491-0.9835c0.287 0.2345 0.5338 0.4375 0.7508 0.5915 0.224 0.1593 0.4602 0.3028 0.7402 0.392l0.5338-1.6677c-0.093-0.037-0.1802-0.0871-0.259-0.1488-0.224-0.1672-0.4428-0.3412-0.6563-0.5215l-1.1095 1.3545zm-1.729-1.246c0.0315 0.0035 0.154 0.035 0.4655 0.252 0.3063 0.2118 0.6948 0.5285 1.2635 0.994l1.1095-1.3545c-0.5477-0.4462-0.9975-0.8155-1.3737-1.078-0.3675-0.2555-0.7735-0.4865-1.232-0.5477l-0.2328 1.7342zm-0.812 0.336c0.0937-0.1226 0.2182-0.2183 0.3608-0.2773s0.2982-0.0793 0.4512-0.0587l0.2328-1.7342c-0.4589-0.0618-0.9259-0.0011-1.3538 0.176-0.4278 0.177-0.8012 0.464-1.0822 0.832l1.3912 1.0622zm-0.3412 2.1053c0.0735-0.7333 0.1225-1.2303 0.189-1.5978 0.0682-0.3745 0.1312-0.4812 0.1522-0.5075l-1.3912-1.0622c-0.28 0.3675-0.4025 0.819-0.483 1.26-0.0805 0.4497-0.14 1.029-0.21 1.7325l1.743 0.175zm-0.3605 1.75c0.1347-0.2625 0.2012-0.5303 0.2467-0.8015 0.0455-0.2625 0.077-0.581 0.1138-0.9485l-1.743-0.175c-0.0244 0.2791-0.0553 0.5575-0.0963 0.8347-0.0119 0.0988-0.0379 0.1955-0.077 0.287l1.5558 0.8033zm-1.3668 1.2372c0.5902-0.2336 1.0757-0.6731 1.3668-1.2372l-1.5558-0.8033c-0.0967 0.1882-0.2584 0.3349-0.455 0.413l0.644 1.6275zm-1.7763 0.1838c0.3693 0 0.6896 0 0.9556-0.0175 0.273-0.0175 0.5477-0.0578 0.8207-0.1663l-0.644-1.6275c-0.0953 0.0296-0.1943 0.0455-0.294 0.0473-0.1925 0.014-0.4462 0.014-0.84 0.014l0.0017 1.75zm-2.2119 0h2.2119l-0.0017-1.75h-2.2102v1.75zm-1.7763-0.1838c0.2748 0.1085 0.5477 0.1488 0.8225 0.1663 0.2643 0.0175 0.5845 0.0175 0.9538 0.0175v-1.75c-0.3921 0-0.644 0-0.8383-0.014-0.0997-0.0018-0.1987-0.0177-0.294-0.0473l-0.644 1.6275zm-1.3667-1.2372c0.291 0.5641 0.7765 1.0036 1.3667 1.2372l0.644-1.6275c-0.1966-0.0781-0.3582-0.2248-0.455-0.413l-1.5557 0.8033zm-0.3605-1.75c0.035 0.3698 0.0723 0.686 0.112 0.9485 0.0455 0.2712 0.1137 0.539 0.2485 0.8015l1.5557-0.8033c-0.0391-0.0915-0.0651-0.1882-0.077-0.287-0.041-0.2766-0.0737-0.5544-0.098-0.833l-1.7412 0.1733zm-0.3413-2.1053c0.021 0.0263 0.084 0.133 0.1523 0.5075 0.0665 0.3675 0.1155 0.8663 0.189 1.5978l1.7412-0.1733c-0.07-0.7017-0.1277-1.2827-0.2082-1.7342-0.0788-0.441-0.2013-0.8908-0.483-1.26l-1.3913 1.0622zm-0.812-0.336c0.153-0.0206 0.3086-3e-4 0.4512 0.0587s0.2671 0.1547 0.3608 0.2773l1.3913-1.0622c-0.2809-0.3683-0.6542-0.6539-1.0821-0.8313-0.4278-0.1773-0.8949-0.2383-1.3539-0.1767l0.2327 1.7342zm-1.729 1.2478c0.5688-0.4673 0.9572-0.784 1.2635-0.9958 0.3133-0.217 0.434-0.2485 0.4655-0.252l-0.2327-1.7342c-0.4585 0.0612-0.8628 0.2922-1.232 0.5495-0.3763 0.2607-0.826 0.63-1.3738 1.078l1.1095 1.3545zm-1.491 0.9817c0.28-0.0892 0.5163-0.231 0.7403-0.3902 0.217-0.154 0.4637-0.357 0.7507-0.5915l-1.1095-1.3545c-0.2135 0.1797-0.4324 0.353-0.6562 0.5197-0.0789 0.0617-0.1661 0.1118-0.259 0.1488l0.5337 1.6677zm-1.8427-0.0892c0.583 0.2523 1.2377 0.2828 1.8427 0.0892l-0.5337-1.6677c-0.2011 0.0642-0.4187 0.0537-0.6125-0.0298l-0.6965 1.6083zm-1.386-1.1288c0.2625 0.2625 0.48825 0.49 0.68775 0.665 0.2065 0.1803 0.42875 0.3465 0.6983 0.4638l0.6965-1.6083c-0.0891-0.0464-0.171-0.1053-0.2433-0.175-0.2064-0.1882-0.4072-0.3825-0.602-0.5827l-1.2372 1.2372zm-1.5628-1.5627 1.5628 1.5627 1.2372-1.2372-1.5628-1.5628-1.2372 1.2373zm-1.127-1.386c0.11725 0.2695 0.28175 0.49 0.46375 0.6982 0.175 0.1995 0.4025 0.4253 0.66325 0.6878l1.2372-1.2373c-0.2008-0.1948-0.39572-0.3955-0.5845-0.602-0.06966-0.0723-0.1286-0.1542-0.175-0.2432l-1.6048 0.6965zm-0.091-1.8428c-0.19364 0.605-0.16131 1.2597 0.091 1.8428l1.6048-0.6965c-0.08405-0.1937-0.09349-0.4113-0.02975-0.6125l-1.666-0.5338zm0.98175-1.491c-0.2345 0.287-0.4375 0.5338-0.5915 0.7508-0.16883 0.2242-0.30059 0.4742-0.39025 0.7402l1.666 0.5338c0.03753-0.0931 0.08821-0.1804 0.1505-0.259 0.112-0.1575 0.27125-0.3535 0.51975-0.6563l-1.3545-1.1095zm1.2478-1.729c-0.00525 0.0315-0.035 0.1523-0.252 0.4655-0.2135 0.3063-0.5285 0.6948-0.99575 1.2635l1.3545 1.1095c0.448-0.5477 0.81725-0.9975 1.078-1.3737 0.25725-0.3675 0.48825-0.7735 0.5495-1.232l-1.7342-0.2328zm-0.336-0.812c0.12264 0.0937 0.21832 0.2182 0.27733 0.3608s0.07925 0.2982 0.05867 0.4512l1.7342 0.2328c0.06155-0.4591 5.5e-4 -0.9262-0.17679-1.354-0.17734-0.4279-0.46472-0.8012-0.83296-1.082l-1.0605 1.3912zm-2.1052-0.3395c0.73325 0.0718 1.2302 0.1208 1.5978 0.1873 0.3745 0.0682 0.48125 0.1312 0.5075 0.1522l1.0605-1.393c-0.3675-0.28-0.81725-0.4025-1.26-0.4812-0.44975-0.0805-1.029-0.14-1.7325-0.21l-0.17325 1.7447zm-1.75-0.3622c0.2625 0.1347 0.53025 0.2012 0.8015 0.2467 0.2625 0.0455 0.57925 0.0788 0.9485 0.1155l0.175-1.743c-0.27917-0.0243-0.55754-0.057-0.83475-0.098-0.09883-0.0119-0.19547-0.0379-0.287-0.077l-0.80325 1.5558zm-1.2372-1.3685c0.23325 0.5908 0.67284 1.077 1.2372 1.3685l0.80325-1.5558c-0.18815-0.0967-0.33487-0.2584-0.413-0.455l-1.6275 0.6423zm-0.182-1.771c0 0.3692 0 0.6895 0.0175 0.9555 0.01133 0.2801 0.06745 0.5566 0.16625 0.819l1.6275-0.6423c-0.02964-0.0953-0.04555-0.1943-0.04725-0.294-0.01307-0.2798-0.01774-0.5599-0.014-0.84l-1.75 0.0018zm0-2.212v2.212h1.75v-2.212h-1.75zm0.18375-1.7763c-0.09916 0.2635-0.1553 0.5412-0.16625 0.8225-0.0175 0.2643-0.0175 0.5845-0.0175 0.9538h1.75c0-0.392 0-0.644 0.014-0.8383 0.0017-0.0997 0.01761-0.1987 0.04725-0.294l-1.6275-0.644zm1.2372-1.3667c-0.5641 0.291-1.0036 0.7765-1.2372 1.3667l1.6275 0.644c0.07813-0.1966 0.22485-0.3582 0.413-0.455l-0.80325-1.5557zm1.75-0.3623c-0.36983 0.035-0.686 0.0741-0.9485 0.1138-0.27876 0.0393-0.54939 0.1232-0.8015 0.2485l0.80325 1.5557c0.035-0.0175 0.105-0.0472 0.287-0.077 0.1925-0.0332 0.44275-0.0577 0.833-0.098l-0.17325-1.743zm2.1052-0.3395c-0.02625 0.021-0.133 0.084-0.5075 0.1523-0.3675 0.0665-0.8645 0.1137-1.5978 0.1872l0.17325 1.743c0.70175-0.07 1.2845-0.1277 1.7342-0.2082 0.44275-0.0788 0.8925-0.2013 1.26-0.483l-1.0622-1.3913zm0.336-0.812c0.02058 0.153 3.4e-4 0.3086-0.05867 0.4512s-0.15469 0.2671-0.27733 0.3608l1.0622 1.3913c0.36792-0.2811 0.65496-0.6545 0.83199-1.0823s0.23771-0.8966 0.17601-1.3555l-1.7342 0.2345zm-1.2478-1.7307c0.46725 0.5705 0.784 0.959 0.9975 1.2652 0.217 0.3133 0.245 0.434 0.25025 0.4655l1.7342-0.2345c-0.06125-0.4585-0.29225-0.861-0.5495-1.2302-0.26075-0.3763-0.63-0.826-1.078-1.3738l-1.3545 1.1078zm-0.98175-1.491c0.0875 0.28 0.231 0.518 0.39025 0.742 0.154 0.2152 0.357 0.4637 0.5915 0.749l1.3545-1.1078c-0.17978-0.2141-0.35311-0.4335-0.51975-0.658-0.06214-0.0782-0.11282-0.1648-0.1505-0.2572l-1.666 0.532zm0.091-1.841c-0.25187 0.5824-0.2842 1.2365-0.091 1.841l1.666-0.532c-0.06374-0.2013-0.05255-0.4189 0.0315-0.6125l-1.6065-0.6965zm1.127-1.386c-0.2625 0.26075-0.49 0.4865-0.665 0.68775-0.19037 0.20654-0.34635 0.44228-0.462 0.6983l1.6065 0.6965c0.04655-0.0885 0.10547-0.1715 0.175-0.2433 0.18733-0.2072 0.38169-0.408 0.58275-0.602l-1.2372-1.2372zm1.5628-1.5645-1.5628 1.5645 1.2372 1.2372 1.5628-1.5645-1.2373-1.2372zm1.386-1.1252c-0.25597 0.11565-0.49172 0.27164-0.69825 0.462-0.1995 0.175-0.427 0.40075-0.68775 0.66325l1.2373 1.2372c0.2782-0.2765 0.4567-0.455 0.602-0.58275 0.14-0.1225 0.2065-0.1575 0.2432-0.175l-0.6965-1.6048zm1.8428-0.09275c-0.6053-0.19309-1.26-0.16013-1.8428 0.09275l0.6965 1.6048c0.1937-0.08405 0.4112-0.09349 0.6125-0.02975l0.5338-1.6678zm1.491 0.9835c-0.287-0.2345-0.5338-0.4375-0.7508-0.5915-0.2242-0.16944-0.4741-0.3018-0.7402-0.392l-0.5338 1.6678c0.093 0.03699 0.1802 0.08708 0.259 0.14875 0.1575 0.11375 0.3535 0.273 0.658 0.5215l1.1078-1.3545zm1.729 1.2478c-0.0315-0.00525-0.1523-0.035-0.4655-0.252-0.4329-0.31749-0.8543-0.64845-1.2635-0.99575l-1.1078 1.3545c0.546 0.448 0.9975 0.81725 1.372 1.078 0.3675 0.2555 0.7735 0.4865 1.232 0.5495l0.2328-1.7342zm0.8119-0.33775c-0.0934 0.12296-0.2178 0.21898-0.3604 0.2783-0.1427 0.05933-0.2984 0.07984-0.4515 0.05945l-0.2328 1.7342c0.4591 0.06205 0.9265-2.5e-4 1.3547-0.17729s0.8018-0.46425 1.0831-0.83246l-1.3931-1.0622zm0.3413-2.1035c-0.0735 0.7315-0.1225 1.2302-0.189 1.596-0.0682 0.3745-0.1312 0.48125-0.1523 0.5075l1.3931 1.0622c0.28-0.3675 0.4025-0.81725 0.4812-1.26 0.0805-0.44975 0.14-1.029 0.21-1.7325l-1.743-0.17325zm0.3605-1.75c-0.1347 0.2625-0.203 0.53025-0.2485 0.8015-0.0437 0.2625-0.0752 0.57925-0.112 0.9485l1.7413 0.175c0.0243-0.27916 0.0569-0.55754 0.098-0.83475 0.0119-0.09883 0.0378-0.19546 0.077-0.287l-1.5558-0.80325zm1.3685-1.2372c-0.5911 0.23369-1.0774 0.67218-1.3685 1.2372l1.5558 0.80325c0.0967-0.18814 0.2583-0.33486 0.455-0.413l-0.6423-1.6275zm1.7745-0.18375c-0.3692 0-0.6895 0-0.9555 0.0175-0.2801 0.01133-0.5566 0.06746-0.819 0.16625l0.6423 1.6275c0.0952-0.02963 0.1942-0.04554 0.294-0.04725 0.1925-0.014 0.4462-0.014 0.84-0.014l-0.0018-1.75zm2.212 0h-2.212v1.75h2.212v-1.75zm1.7763 0.18375c-0.2635-0.09916-0.5412-0.15529-0.8225-0.16625-0.2643-0.0175-0.5845-0.0175-0.9538-0.0175v1.75c0.392 0 0.644 0 0.8383 0.014 0.0997 0.00171 0.1987 0.01762 0.294 0.04725l0.644-1.6275zm1.3667 1.2372c-0.2914-0.56441-0.7777-1.004-1.3685-1.2372l-0.6422 1.6275c0.1966 0.07814 0.3582 0.22486 0.455 0.413l1.5557-0.80325zm1.876 16.952c0 1.6245-0.6453 3.1824-1.794 4.331-1.1486 1.1487-2.7065 1.794-4.331 1.794v1.75c2.0886 0 4.0916-0.8297 5.5685-2.3065 1.4768-1.4769 2.3065-3.4799 2.3065-5.5685h-1.75zm-6.125-6.125c1.6245 0 3.1824 0.6453 4.331 1.794 1.1487 1.1486 1.794 2.7066 1.794 4.331h1.75c0-2.0886-0.8297-4.0916-2.3065-5.5685-1.4769-1.4768-3.4799-2.3065-5.5685-2.3065v1.75zm-6.125 6.125c0-1.6244 0.6453-3.1824 1.794-4.331 1.1486-1.1487 2.7065-1.794 4.331-1.794v-1.75c-2.0886 0-4.0916 0.8297-5.5685 2.3065-1.4768 1.4769-2.3065 3.4799-2.3065 5.5685h1.75zm6.125 6.125c-1.6245 0-3.1824-0.6453-4.331-1.794-1.1487-1.1486-1.794-2.7065-1.794-4.331h-1.75c0 2.0886 0.8297 4.0916 2.3065 5.5685 1.4769 1.4768 3.4799 2.3065 5.5685 2.3065v-1.75z" fill="#fff"/>
</svg>
