<?xml version="1.0" encoding="UTF-8"?>
<svg fill="none" viewBox="0 0 42 42" xmlns="http://www.w3.org/2000/svg">
<path d="m25.375 11.375-8.75 6.125m8.75 13.125-8.75-6.125m0-3.5c0 1.1603-0.4609 2.2731-1.2814 3.0936s-1.9333 1.2814-3.0936 1.2814-2.2731-0.4609-3.0936-1.2814-1.2814-1.9333-1.2814-3.0936 0.46094-2.2731 1.2814-3.0936 1.9333-1.2814 3.0936-1.2814 2.2731 0.4609 3.0936 1.2814 1.2814 1.9333 1.2814 3.0936zm17.5 11.375c0 1.1603-0.4609 2.2731-1.2814 3.0936s-1.9333 1.2814-3.0936 1.2814-2.2731-0.4609-3.0936-1.2814-1.2814-1.9333-1.2814-3.0936 0.4609-2.2731 1.2814-3.0936 1.9333-1.2814 3.0936-1.2814 2.2731 0.4609 3.0936 1.2814 1.2814 1.9333 1.2814 3.0936zm0-22.75c0 1.1603-0.4609 2.2731-1.2814 3.0936s-1.9333 1.2814-3.0936 1.2814-2.2731-0.4609-3.0936-1.2814-1.2814-1.9333-1.2814-3.0936c0-1.1603 0.4609-2.2731 1.2814-3.0936s1.9333-1.2814 3.0936-1.2814 2.2731 0.46094 3.0936 1.2814 1.2814 1.9333 1.2814 3.0936z" stroke="#fff" stroke-linecap="round" stroke-linejoin="round" stroke-width="1.5"/>
</svg>
