<?xml version="1.0" encoding="UTF-8"?>
<svg fill="none" viewBox="0 0 40 40" xmlns="http://www.w3.org/2000/svg">
<path d="m12.693 35c-1.2055 0-2.2333-0.4256-3.0833-1.2767-0.85111-0.8489-1.2767-1.8761-1.2767-3.0816v-20.642c0-1.3978 0.48389-2.5806 1.4517-3.5483 0.96782-0.96778 2.1505-1.4517 3.5483-1.4517h15.642c0.7444 0 1.3794 0.26222 1.905 0.78667 0.5244 0.52444 0.7866 1.16 0.7866 1.9067v19.4c0 0.2311-0.0683 0.4361-0.205 0.615-0.1366 0.18-0.3033 0.3028-0.5 0.3684-0.5811 0.1522-1.0577 0.4633-1.43 0.9333-0.3722 0.4722-0.5583 1.0161-0.5583 1.6317 0 0.5933 0.1806 1.1322 0.5417 1.6166 0.3611 0.4845 0.8328 0.8 1.415 0.9467 0.2111 0.0756 0.3866 0.1828 0.5266 0.3217s0.21 0.3166 0.21 0.5333v0.0967c0 0.2377-0.0794 0.4377-0.2383 0.6-0.1589 0.1622-0.3572 0.2433-0.595 0.2433h-18.14zm-2.6933-7.7283c0.36662-0.3223 0.78002-0.5678 1.24-0.7367s0.9444-0.2533 1.4533-0.2533h17.307v-18.59c0-0.29889-0.0961-0.54445-0.2884-0.73667-0.1922-0.19222-0.4377-0.28833-0.7366-0.28833h-15.642c-0.9078 0-1.6905 0.32833-2.3483 0.985-0.6567 0.65777-0.98502 1.4406-0.98502 2.3483v17.272zm7.4333-8.6284h5.0917l0.8333 2.2384c0.0556 0.13 0.1333 0.2294 0.2333 0.2983s0.2178 0.1028 0.3534 0.1017c0.2266 0 0.4-0.0906 0.52-0.2717 0.12-0.1822 0.1422-0.3728 0.0666-0.5717l-3.6016-9.5883c-0.0556-0.1511-0.1456-0.2661-0.27-0.345-0.1245-0.0789-0.2656-0.1183-0.4234-0.1183h-0.525c-0.1588 0-0.3 0.0394-0.4233 0.1183s-0.2128 0.1939-0.2683 0.345l-3.6034 9.5667c-0.0744 0.22-0.0505 0.4194 0.0717 0.5983s0.2972 0.2678 0.525 0.2667c0.1367 0 0.2545-0.0339 0.3533-0.1017 0.1-0.0689 0.1778-0.1689 0.2334-0.3l0.8333-2.2367zm0.455-1.2583 2.0917-5.6033h0.03l2.06 5.6033h-4.1817zm-5.195 15.948h15.605c-0.3167-0.3666-0.5611-0.7733-0.7333-1.22-0.1722-0.4444-0.2584-0.9355-0.2584-1.4733 0-0.5078 0.0845-0.9911 0.2534-1.45s0.415-0.8728 0.7383-1.2417h-15.605c-0.7655 0-1.4055 0.2645-1.92 0.7934-0.5144 0.5289-0.7722 1.1622-0.77332 1.9 0 0.7644 0.25782 1.4039 0.77332 1.9183 0.5156 0.5144 1.1556 0.7722 1.92 0.7733z" fill="#fff"/>
</svg>
